<svg xmlns="http://www.w3.org/2000/svg" width="1280" height="740" viewBox="0 0 1280 740" role="img" aria-labelledby="titulo descricao"><title id="titulo">A máquina e a fita: von Neumann e a Factory</title><desc id="descricao">Tabela ilustrada da correspondência entre o autômato autorreprodutor de von Neumann e a Factory. A · construtor universal: dada uma descrição Φ(X), constrói X. Na Factory: núcleo, factory-maquina.py. B · copiador: copia Φ(X) sem interpretar. Na Factory: replicação, git. C · controle: coordena A e B. Na Factory: coordenação, James · Maestro · fila. Φ · fita: a descrição, fora do construtor. Na Factory: descrição versionada, factory.manifest.json, código, testes, CLAUDE.md, memória. Embaixo, a fita Φ desenhada como uma tira de células com zeros, uns e letras; uma célula em ouro marca uma mutação Δ, isto é, um PR mergeado. Legenda: a fita é interpretada para construir e copiada sem interpretação; o James não evolui trocando de host, evolui editando a fita. É uma correspondência de arquitetura, não um teorema.</desc><defs><path id="A" d="m112 104q0 0 0-1q0-1 0-1q-6 0-10-3q-4-3-7-10l-36-89q0 0-1 0q-2 0-2 0l-42 90q-3 7-6 10q-3 2-8 2q-1 0-1 1q0 1 1 1q2 0 4 0q2 0 4 0q3 0 6 0q5 0 8 0q4 0 7 0q3 0 6 0q0 0 0-1q0-1 0-1q-7 0-9-2q-3-3 0-9l35-76l30 75q2 6-1 9q-2 3-11 3q0 0 0 1q0 1 0 1q4 0 8 0q4 0 10 0q5 0 7 0q3 0 8 0z"/><path id="B" d="m20 18l0 78q-2 2-5 4q-4 2-8 2q-1 0-1 1q0 1 1 1q3 0 6 0q3 0 5 0q4 0 6 0q3 0 4 0q2 0 3-2q1-2 5-6l64-79l0 69q0 8-3 12q-3 4-9 4q-1 0-1 1q0 1 1 1q3 0 6 0q4 0 8 0q4 0 8 0q4 0 7 0q1 0 1-1q0-1-1-1q-7 0-10-4q-3-4-3-12l0-88q0 0-1 0q-1 0-1 0l-77 92q-1 2-1 2l0-74q0-8 3-12q3-4 10-4q0 0 0-1q0-1 0-1q-3 0-7 0q-4 0-8 0q-4 0-8 0q-4 0-7 0q-1 0-1 1q0 1 1 1q7 0 10 4q3 4 3 12z"/><path id="C" d="m93 0q0 0 0 1q0 1 0 1q7 0 9 2q2 2 2 10l0 26q0 20-14 20q-6 0-12-4q-4-3-8-7q0-1 0-3l0-32q0-8 2-10q2-2 9-2q0 0 0-1q0-1 0-1q-3 0-7 0q-4 0-8 0q-5 0-9 0q-4 0-7 0q0 0 0 1q0 1 0 1q7 0 9 2q2 2 2 10l0 26q0 20-15 20q-6 0-11-4q-4-3-8-7l0-35q0-8 2-10q2-2 9-2q0 0 0-1q0-1 0-1q-3 0-7 0q-4 0-9 0q-4 0-8 0q-4 0-6 0q-1 0-1 1q0 1 1 1q6 0 8 2q2 2 2 10l0 32q0 6-2 8q-1 3-4 3q-2 0-4-1q-2 0-5-1q-1-1-1 0q0 1 0 1l20 10q0 0 0 0q2 0 4-4q1-3 1-10l0 0q5 6 11 10q6 4 14 4q8 0 13-5q4-3 5-10q5 7 11 11q7 4 14 4q9 0 13-5q5-5 5-15l0-32q0-8 2-10q2-2 9-2q0 0 0-1q0-1 0-1q-3 0-7 0q-4 0-9 0q-4 0-8 0q-4 0-7 0z"/><path id="D" d="m11 51q0 15 4 29q4 14 11 24q8 11 20 17q0 0 0-1q1 0 0 0q-12-12-18-30q-6-17-6-40q0-22 6-39q6-17 18-29q0 0 0-1q0 0 0 0q0-1 0-1q-12 7-20 18q-7 10-11 24q-4 13-4 29z"/><path id="E" d="m12 0q0 0 0 1q0 1 0 1q8 0 12 1q3 1 4 3q2 3 2 8l0 68q0 9-4 9q-2 0-6-2q-3-2-9-6q-1 0-1 1q0 0 0 1l28 20q1 1 1 1q1 0 1-1l0-91q0-5 2-8q1-2 5-3q4-1 12-1q0 0 0-1q0-1 0-1q-5 0-11 0q-6 0-13 0q-6 0-12 0q-6 0-11 0z"/><path id="F" d="m34 48q-9 0-14 4q-6 4-9 10q-3 7-3 14q0 9 4 16q4 6 12 10q7 4 16 4q11 0 18-5q7-5 10-14q4-9 4-21q0-12-4-24q-3-11-10-21q-7-10-17-16q-10-6-23-7q0 0 0 0q0 0 0 1q0 0 0 1q0 0 0 0q11 2 19 8q8 6 13 15q5 9 8 19q3 11 3 22q0 7-1 14q-2 7-5 12q-3 6-8 10q-5 3-11 3q-9 0-13-6q-4-6-4-16q0-13 5-21q6-8 15-8q3 0 6 2q3 1 7 4q0 0 1 0q1-1 0-1q-7-9-19-9z"/><path id="G" d="m49 57q8 0 13-4q6-4 9-11q3-6 3-13q0-9-4-16q-4-7-12-11q-7-4-16-4q-11 0-18 5q-7 5-10 14q-4 9-4 21q0 12 4 24q3 11 10 21q7 10 16 16q10 6 23 7q1 0 1-1q0 0 0 0q0-1-1-1q-10-2-18-8q-8-6-13-15q-6-9-8-19q-3-11-3-22q0-7 1-14q2-7 5-12q3-6 7-10q5-3 12-3q9 0 13 7q4 6 4 16q0 13-5 20q-5 8-14 8q-3 0-6-2q-4-1-8-5q0 0-1 1q-1 0-1 0q4 6 10 8q5 3 11 3z"/><path id="H" d="m41 51q0-16-5-29q-4-14-12-25q-7-11-18-17q0 0 0 0q-1 1-1 2q13 12 19 29q5 17 5 40q0 22-5 39q-6 18-19 30q0 0 1 0q0 1 0 1q11-6 18-17q8-10 12-24q5-14 5-29z"/><path id="I" d="m52-1q0 0-1 0q-2 0-4 3q-2 3-2 8l-9-6q-4-3-7-4q-3-1-7-1q-6 0-10 3q-3 4-3 8q0 4 2 6q2 3 5 6q4 2 10 4l19 7l0 11q0 10-3 14q-3 5-8 5q-4 0-6-2q-3-2-4-5q-2-3-2-6q-1-2-2-4q-1-2-4-2q-3 0-4 2q-2 1-2 3q0 3 3 6q3 3 8 5q5 3 10 4q5 2 9 2q7 0 10-4q4-5 4-13l0-31q0-6 2-8q1-3 4-3q4 0 9 2q0 0 1 0q0 0 0-1q0 0 0-1zm-7 13q0 0 0 1l0 17l-16-6q-3-1-5-2q-2-2-3-4q-1-1-1-4q0-3 3-6q3-3 7-3q2 0 4 1q1 0 4 2zm-26 109q0 0 0 1q1 0 2 0q1 0 3 0q2-1 4-2q1 0 1-1l9-40q0 0 0 0q0 0-1 0q-1-1-1 0z"/><path id="J" d="m32-2q-7 0-13 4q-6 3-9 10q-4 7-4 16q0 11 4 18q3 8 8 12q5 4 12 6q6 2 12 2q12 0 22-5l12 4q0 0 0 0q0 0 0-1q1 0 0-1q-4-2-6-5q-2-3-2-9l0-81q0-8 2-10q2-2 9-2q0 0 0-1q0-1 0-1q-3 0-7 0q-4 0-9 0q-5 0-9 0q-4 0-8 0q-1 0-1 1q0 1 1 1q8 0 10 2q3 2 3 10l0 44q-2-2-4-4q-5-4-11-7q-5-3-12-3zm27 17l0 30q0 6-3 10q-3 4-8 6q-4 2-11 2q-10 0-15-7q-5-7-5-22q0-15 5-23q6-8 16-8q6 0 12 5q5 3 9 7z"/><path id="K" d="m7 0q0 0 0 1q0 1 0 1q6 0 9 1q3 1 4 3q2 3 2 8l0 77q0 5-2 7q-1 2-4 3q-3 1-9 1q0 0 0 1q0 1 0 1l67 0q2 0 2-1l0-21q0 0-1 0q-1 0-1 0q0 0 0 0q0 9-5 14q-5 5-13 5l-10 0q-8 0-11-2q-3-2-3-9l0-36l17 0q9 0 13 3q4 3 4 9q0 0 1 0q1 0 1 0q0-5 0-8q-1-3-1-6q0-4 1-8q0-3 0-7q0-1-1-1q-1 0-1 1q0 7-4 10q-4 3-13 3l-17 0l0-36q0-5 2-8q1-2 6-3q4-1 12-1q1 0 1-1q0-1-1-1q-5 0-12 0q-6 0-13 0q-6 0-11 0q-5 0-9 0z"/><path id="L" d="m72 64q0 0 0-1q0-1 0-1q-4 0-7-2q-3-3-6-10l-20-55q-6-16-11-25q-6-9-12-13q-6-4-13-4q-4 0-7 1q-2 2-2 6q0 2 2 4q1 1 3 1q4 0 5-1l4-2q1-1 4-1q4 0 8 3q4 4 8 13q4 8 9 22l-25 51q-4 8-6 10q-2 2-6 2q0 0 0 1q0 1 0 1q3 0 6 0q3 0 6 0q5 0 10 0q4 0 7 0q0 0 0-1q0-1 0-1q-5 0-8-1q-1-1-1-1q-1-2 0-4l22-45l13 38q3 7 1 10q-3 3-12 3q0 0 0 1q0 1 0 1q4 0 8 0q3 0 9 0q3 0 5 0q3 0 6 0z"/><path id="M" d="m16-2q-3 0-5 2q-2 2-2 5q0 3 2 5q2 2 5 2q4 0 6-2q2-2 2-5q0-3-2-5q-2-2-6-2zm0 47q-3 0-5 2q-2 2-2 5q0 3 2 5q2 2 5 2q4 0 6-2q2-2 2-5q0-3-2-5q-2-2-6-2z"/><path id="N" d="m36-2q-10 0-16 4q-7 5-10 12q-4 8-4 16q0 10 4 18q5 8 14 13q8 5 17 5q10 0 15-5q4-5 4-14q0-2 0-3q0-2-2-2l-6 0l-35 0q0-2 0-6q0-9 3-16q3-8 9-12q6-4 14-4q6 0 9 2q4 1 8 3q0 0 0 1q0 0 1-1q0-1 0-1q-6-6-12-8q-6-2-13-2zm13 47q0 8-3 13q-4 4-10 4q-9 0-14-6q-3-5-4-12zm2 34q0 0 0 0q0 0-1 0q0-1-1 0l-11 27l-12-27q0-1 0 0q-1 0-1 0q0 0 0 0l11 42q0 1 2 1q2 0 2-1z"/><path id="O" d="m52-1q0 0-1 0q-2 0-4 3q-2 3-2 8l-9-6q-4-3-7-4q-3-1-7-1q-6 0-10 3q-3 4-3 8q0 4 2 6q2 3 5 6q4 2 10 4l19 7l0 11q0 10-3 14q-3 5-8 5q-4 0-6-2q-3-2-4-5q-2-3-2-6q-1-2-2-4q-1-2-4-2q-3 0-4 2q-2 1-2 3q0 3 3 6q3 3 8 5q5 3 10 4q5 2 9 2q7 0 10-4q4-5 4-13l0-31q0-6 2-8q1-3 4-3q4 0 9 2q0 0 1 0q0 0 0-1q0 0 0-1zm-7 13q0 0 0 1l0 17l-16-6q-3-1-5-2q-2-2-3-4q-1-1-1-4q0-3 3-6q3-3 7-3q2 0 4 1q1 0 4 2zm3 75q3 0 5 1q2 2 3 4q1 0 2 0q0-1 0-1q-5-7-8-9q-3-2-6-2q-3 0-6 1q-4 1-8 2q-3 1-8 1q-3 0-4-1q-2-1-4-3q0 0 0 0q-1 1-1 1q1 2 3 5q3 2 6 4q2 1 5 1q3 0 7-1q3-1 6-2q4-1 8-1z"/><path id="P" d="m16-2q-3 0-5 2q-2 2-2 5q0 3 2 5q2 2 5 2q4 0 6-2q2-2 2-5q0-3-2-5q-2-2-6-2z"/><path id="Q" d="m223 208q1 0 1-2q0-2-1-2q-12 0-21-7q-9-7-15-23l-68-174q-1-1-4-1q-3 0-4 1l-83 181q-6 12-12 17q-6 6-16 6q-1 0-1 2q0 2 1 2q5 0 8 0q4 0 8 0q5-1 11-1q13 0 22 1q9 0 15 0q6 0 11 0q1 0 1-2q0-2-1-2q-13 0-18-6q-5-5 1-18l66-144l55 140q5 13 0 20q-5 8-23 8q-1 0-1 2q0 2 1 2q9 0 16 0q8-1 21-1q10 0 15 1q6 0 15 0z"/><path id="R" d="m122-4q-24 0-44 8q-19 9-33 24q-14 15-21 34q-8 20-8 42q0 27 10 48q11 20 28 34q18 13 38 20q21 6 42 6q24 0 44-9q19-9 33-24q14-15 21-34q7-19 7-39q0-23-9-43q-10-20-26-35q-16-15-37-24q-21-8-45-8zm12 7q21 0 38 11q17 11 27 32q10 21 10 51q0 31-11 55q-11 24-31 38q-20 14-47 14q-35 0-54-24q-19-23-19-64q0-24 6-44q6-21 17-36q12-16 28-24q16-9 36-9z"/><path id="S" d="m139 212q12 0 23-1q11-1 20-4q10-3 19-7q2-1 3-2q0-1 1-5l4-42q0-1-2-1q-1-1-2 0q0 0 0 0q-8 28-25 42q-17 14-44 14q-26 0-46-12q-20-12-32-34q-11-23-11-54q0-23 7-42q7-19 20-33q12-14 28-21q17-8 36-8q27 0 44 13q16 13 26 41q0 1 2 0q2 0 2-1l-4-38q0-4-1-5q-1-1-3-2q-17-8-32-11q-16-3-34-3q-35 0-62 14q-28 13-44 38q-16 24-16 57q0 24 10 43q9 20 26 34q16 15 38 22q22 8 49 8z"/><path id="T" d="m182 0q-5 0-18 13q-12 13-29 37q-16 22-36 53q-7-2-15-2q-4 0-8 1q-4 0-8 0l0-75q0-10 2-15q2-5 8-6q5-2 17-2q1 0 1-2q0-2-1-2q-8 0-18 0q-10 1-22 1q-12 0-22-1q-10 0-19 0q-1 0-1 2q0 2 1 2q12 0 18 2q5 1 8 6q2 5 2 15l0 154q0 10-2 15q-2 5-8 6q-6 2-17 2q-1 0-1 2q0 2 1 2q8 0 18 0q10-1 22-1q10 0 23 1q14 1 24 1q28 0 43-11q15-12 15-32q0-19-11-33q-10-15-27-23q26-38 45-61q19-24 34-35q15-10 29-10q1 0 1-2q0-2-1-2zm-50 155q0 19-5 29q-5 11-14 16q-9 4-21 4q-13 0-18-4q-6-5-6-19l0-71q5 0 10 0q6-1 10-1q24 0 34 11q10 12 10 35z"/><path id="U" d="m112 110l37 59q10 17 7 26q-2 9-17 9q-1 0-1 2q0 2 1 2q10 0 19 0q8-1 22-1q8 0 13 1q5 0 13 0q0 0 0-2q0-2 0-2q-8 0-16-4q-9-5-17-13q-8-8-15-19l-42-66l0-75q0-10 2-15q2-5 8-6q5-2 17-2q1 0 1-2q0-2-1-2q-8 0-18 0q-10 1-22 1q-12 0-23-1q-10 0-18 0q-1 0-1 2q0 2 1 2q12 0 18 2q6 1 8 6q2 5 2 15l0 70l-53 79q-11 16-19 22q-8 6-18 6q-1 0-1 2q0 2 1 2q6 0 12 0q6-1 11-1q9 0 18 1q9 0 17 0q9 0 15 0q0 0 0-2q0-2 0-2q-12 0-15-4q-3-5 3-13z"/><path id="V" d="m-6 0q0 0 0 1q0 1 0 1q5 0 10 4q6 4 12 14l48 86q0 0 1 0q1 0 2 0l14-92q1-4 2-7q1-3 3-4q3-1 8-1q0 0 0-1q0-1 0-1q-4 0-8 0q-4 1-9 1q-5 0-9-1q-3 0-7 0q-1 0-1 1q0 1 1 1q8 0 9 2q2 3 2 10l-6 32l-32 0l-12-24q-5-8-6-12q0-5 3-6q3-2 8-2q1 0 1-1q0-1-1-1q-3 0-8 0q-5 1-9 1q-5 0-8-1q-3 0-8 0zm72 49l-7 42l-23-42z"/><path id="W" d="m72 64q0 0 0-1q0-1 0-1q-4 0-7-2q-3-3-6-10l-21-50q0 0-2 0q-1 0-2 0l-23 50q-3 8-5 10q-3 2-6 2q0 0 0 1q0 1 0 1q2 0 5 0q3 0 7 0q5 0 10 0q4 0 7 0q1 0 1-1q0-1-1-1q-5 0-8-1q-1 0-2-1q-1-2 1-4l20-43l16 38q2 6-1 9q-3 2-11 2q-1 0-1 1q0 1 1 1q4 0 8 0q3 0 8 0q4 0 6 0q2 0 6 0z"/><path id="X" d="m18-2q-5 0-8 2q-4 2-6 7q-1 5 0 14q2 9 6 17q5 9 12 15q6 6 13 9q7 4 14 4q5 0 8-2l8 39q1 6-1 7q-3 2-11-2q0 0-1 0q0 0 0 1q0 1 0 1q0 0 0 0l22 11q0 0 1-1q1 0 1 0l-20-105q-1-5 0-7q1-3 3-3q2 0 5 2q3 2 6 6q0 0 1 0q0 0 1 0q0-1 0-1q0 0 0 0q-6-7-10-10q-5-4-9-4q-5 0-6 4q-1 4 1 13l3 16q-3-7-7-12q-6-10-12-15q-7-6-14-6zm5 8q5 0 11 4q5 4 9 11q4 7 7 13q3 7 4 12q1 7-2 11q-3 4-9 4q-10-1-19-9q-8-8-10-24q-2-11 0-16q3-6 9-6z"/><path id="Y" d="m14-2q-6 0-9 4q-3 4-1 13q1 9 6 18q4 9 10 17q6 7 14 12q7 4 13 4q3 0 7 0q2-2 4-4q0 0 1 0q3 3 3 6q1 0 2 0q0 0 0 0q0 0 0 0l-9-53q-2-8 1-9q0-1 1-1q2 0 5 2q3 2 6 6q1 0 2-1q0 0 0 0q-6-7-10-10q-5-4-9-4q-4 0-5 4q-2 4 0 13l3 17q-3-7-8-13q-6-10-13-15q-8-6-14-6zm6 8q4 0 9 4q5 3 9 9q5 6 8 13q4 7 6 14q1 6-2 10q-2 5-8 5q-6-1-12-6q-6-5-11-13q-5-8-6-19q-1-9 1-13q1-4 6-4z"/><path id="Z" d="m22-2q-7 0-10 5q-2 5 0 17l6 30q1 5 0 7q0 2-2 2q-2 0-5-2q-3-2-7-5q0-1-1 0q-1 0 0 1q6 6 11 9q4 4 8 4q4 0 5-4q1-4 0-12l-6-27q-2-10-1-15q2-4 7-4q6 0 11 7q6 7 12 20q5 13 8 32q1 3 6 3q2 0 3 0q1-1 1-1q0-1-1-5q-1-4-2-8l-7-37q-1-8 2-10q0 0 1 0q2 0 5 2q3 2 7 6q0 0 0 0q1 0 1 0q0-1 0-2q-6-6-10-9q-5-4-10-4q-4 0-5 4q-1 4 1 12l3 20q-1-2-2-5q-6-15-13-23q-8-8-16-8z"/><path id="a" d="m235 4q1 0 1-2q0-2-1-2q-10 0-20 0q-10 1-20 1q-11 0-19-1q-7 0-17 0q-1 0-1 2q0 2 1 2q16 0 20 5q4 5-4 21l-27 57l-80 0l-19-43q-8-20-1-30q8-10 29-10q2 0 2-2q0-2-2-2q-10 0-19 0q-8 1-20 1q-13 0-20-1q-8 0-18 0q-2 0-2 2q0 2 2 2q9 0 16 4q6 3 12 12q6 10 14 27l71 164q0 1 2 1q2 0 2-1l80-165q8-17 14-26q6-9 11-12q6-4 13-4zm-91 90l-38 81l-35-81z"/><path id="aA" d="m16 26q-3 0-5 2q-2 2-2 5q0 3 2 5q2 2 5 2q4 0 6-2q2-2 2-5q0-3-2-5q-2-2-6-2z"/><path id="aB" d="m20 18l1 77q-5 7-13 7q-1 0-1 1q0 1 1 1q2 0 5 0q3 0 5 0q3 0 6 0q2 0 3 0q2 0 3-2q2-1 4-6l38-79l36 83q1 2 2 3q2 1 3 1q1 0 3 0q1 0 4 0q4 0 7 0q3 0 6 0q0 0 0-1q0-1 0-1q-8 0-12-2q-4-2-3-9l3-77q0-5 1-8q1-2 4-3q3-1 9-1q1 0 1-1q0-1-1-1q-4 0-9 0q-5 0-10 0q-6 0-10 0q-5 0-8 0q-1 0-1 1q0 1 1 1q8 0 10 2q2 2 2 10l-3 75l-38-88q0-1-1-1q-1 0-2 1l-41 88l-1-71q0-8 3-12q3-4 11-4q0 0 0-1q0-1 0-1q-4 0-8 0q-4 0-8 0q-4 0-8 0q-4 0-8 0q0 0 0 1q0 1 0 1q8 0 11 4q3 4 3 12z"/><path id="aC" d="m28 64q0-1 0-6q-1-5-1-13l0-53q0-11-2-18q-2-8-7-13q-5-5-14-8q0 0 0 0q0 0-1 1q0 1 0 1q9 3 12 11q3 8 3 22l0 57q0 5-1 8q-1 3-4 3q-2 0-3 0q-2-1-5-2q-1 0-1 0q0 1 0 2l22 10q0 0 0 0q1 0 2 0q0-1 0-2zm-7 21q-3 0-5 2q-2 2-2 5q0 4 2 6q2 1 5 1q4 0 5-1q2-2 2-6q0-7-7-7z"/><path id="aD" d="m38-2q-9 0-16 5q-8 5-12 13q-4 8-4 17q0 9 3 15q3 6 9 10q5 4 12 6q6 2 12 2q10 0 17-5q7-5 11-13q4-7 4-16q0-10-5-18q-5-8-13-12q-8-4-18-4zm5 3q9 0 14 7q5 6 5 20q0 10-3 18q-3 8-9 12q-6 5-14 5q-9 0-14-7q-5-6-5-18q0-10 3-18q4-9 10-14q6-5 13-5zm-3 78q0-1-1 0q-1 0-1 0q0 0 0 0l9 40q0 1 1 1q2 1 4 2q2 0 4 0q1 0 1 0q0-1 0-1z"/><path id="aE" d="m31 90l0-76q0-4 1-6q1-3 4-4q3 0 8 0l18 0q10 0 16 6q5 6 7 16q0 0 0 0q0 0 1 0q1 0 1-1q-1-4-1-11q-1-6-1-12q0-2-2-2l-77 0q0 0 0 1q0 1 0 1q6 0 9 1q3 1 4 3q1 3 1 8l0 77q0 5-1 7q-1 2-4 3q-3 1-9 1q0 0 0 1q0 1 0 1q4 0 9 0q5 0 10 0q6 0 11 0q5 0 9 0q1 0 1-1q0-1-1-1q-6 0-9-1q-3-1-4-3q-1-3-1-8z"/><path id="aF" d="m116 2q1 0 1-1q0-1-1-1q-4 0-9 0q-5 1-10 1q-5 0-9-1q-4 0-8 0q-1 0-1 1q0 1 1 1q8 0 10 2q3 3-1 10l-15 32l-39 0l-11-25q-4-10 0-15q3-4 14-4q1 0 1-1q0-1-1-1q-5 0-9 0q-4 1-11 1q-6 0-10-1q-3 0-8 0q0 0 0 1q0 1 0 1q5 0 8 2q3 2 6 6q3 4 7 13l35 83q0 0 1 0q1 0 1 0l39-83q4-8 7-13q3-4 6-6q3-2 6-2zm-43 47l-20 41l-17-41z"/><path id="aG" d="m95 86q0 8-3 12q-4 4-11 4q-1 0-1 1q0 1 1 1q4 0 8 0q4 0 9 0q3 0 7 0q4 0 8 0q0 0 0-1q0-1 0-1q-7 0-11-4q-3-4-3-12l0-48q0-12-5-21q-4-9-13-14q-9-5-21-5q-12 0-22 5q-9 5-14 13q-5 9-5 21l0 54q0 5-1 7q-1 2-4 3q-3 1-9 1q-1 0-1 1q0 1 1 1q4 0 9 0q5 0 10 0q6 0 11 0q5 0 9 0q0 0 0-1q0-1 0-1q-6 0-9-1q-3-1-4-3q-1-3-1-8l0-47q0-20 9-30q9-10 25-10q15 0 23 9q8 10 8 26z"/><path id="aH" d="m50-1q-4 0-11 1q-7 0-13 0q-6 0-11 0q-5 0-9 0q0 0 0 1q0 1 0 1q6 0 9 1q3 1 4 3q1 3 1 8l0 77q0 5-1 7q-1 2-4 3q-3 1-9 1q0 0 0 1q0 1 0 1q4 0 9 0q5 0 11 0q5 0 12 0q6 0 10 0q18 0 31-6q13-7 21-18q7-12 7-26q0-13-5-23q-4-10-12-17q-8-7-18-11q-10-4-22-4zm-1 3q13 0 23 6q10 5 16 16q6 11 6 26q0 15-6 26q-5 12-14 19q-10 7-24 7q-10 0-14-2q-5-2-5-10l0-75q0-7 3-10q4-3 15-3z"/><path id="aI" d="m77 0l-70 0q0 0 0 1q0 1 0 1q6 0 9 1q3 1 4 3q2 3 2 8l0 77q0 5-2 7q-1 2-4 3q-3 1-9 1q0 0 0 1q0 1 0 1l67 0q2 0 2-1l0-21q0 0-1 0q-1 0-1 0q0 0 0 0q0 9-5 14q-5 5-13 5l-10 0q-6 0-9-1q-3-1-4-4q-1-2-1-6l0-34l21 0q8 0 11 3q4 3 4 9q0 0 1 0q1 0 1 0q0-5 0-8q-1-3-1-6q0-4 1-8q0-3 0-7q0-1-1-1q-1 0-1 1q0 7-4 10q-4 3-12 3l-20 0l0-38q0-4 1-6q1-3 4-4q3 0 8 0l14 0q8 0 13 6q6 5 7 15q0 0 0 0q0 0 1 0q1 0 1-1q-1-4-1-10q0-6 0-12q0-2-3-2z"/><path id="aJ" d="m2 0q-1 0-1 1q0 1 1 1q5 0 8 1q3 1 4 3q1 3 2 8l14 77q1 7-1 9q-2 2-9 2q-1 0-1 1q0 1 1 1q3 0 8 0q4 0 8 0q5 0 10 0q4 0 8 0q0 0 0-1q0-1 0-1q-6 0-8-1q-3-1-4-3q-2-3-3-8l-6-35l40 36q6 6 6 9q0 2-8 2q0 0 0 1q0 1 0 1q4 0 8 0q4 0 9 0q6 0 9 0q3 0 6 0q1 0 1-1q0-1-1-1q-5 0-12-2q-7-3-15-10l-30-26l17-30q7-12 11-18q4-7 7-10q3-2 5-3q2-1 6-1q0 0 0-1q0-1 0-1l-14 0q-4 0-6 0q-2 0-3 1q-1 1-2 3q-1 3-3 8q-3 5-8 13l-17 31l-7-5l-6-37q-1-5-1-8q0-2 2-3q2-1 7-1q1 0 1-1q0-1-1-1q-3 0-6 0q-4 0-10 0q-4 0-8 0q-5 0-8 0z"/><path id="aK" d="m42-2q-10 0-18 7q-8 7-12 19q-4 12-4 28q0 16 4 28q4 12 12 19q8 7 18 7q10 0 18-7q7-7 12-19q4-12 4-28q0-16-4-28q-5-13-12-20q-8-6-18-6zm2 2q7 0 12 6q4 6 6 17q2 11 2 27q0 18-3 30q-3 12-9 18q-5 6-12 6q-6 0-11-6q-5-7-7-18q-2-11-2-27q0-16 2-28q3-12 8-19q6-6 14-6z"/><path id="aL" d="m30-2q-5 0-10 1q-5 1-11 5q-1 0-1 1q0 1 0 2l2 22q0 1 1 1q1 0 1-1q0-7 2-13q3-7 8-11q5-4 13-4q5 0 9 1q5 2 8 6q4 5 5 12q1 8-1 14q-2 5-7 9q-5 4-10 7q-5 4-9 8q-5 4-8 9q-2 5-1 13q2 9 7 14q5 6 12 9q8 3 15 3q4 0 9-1q4-1 9-3q2-1 2-3l-2-18q0-1-1-1q-1 0-1 1q-1 5-3 11q-1 5-4 8q-4 4-12 4q-6 0-10-3q-5-3-8-7q-2-5-2-9q-2-7 0-12q3-5 8-9q4-3 9-7q6-3 11-7q4-5 7-10q3-6 1-14q-1-8-6-14q-4-6-12-10q-8-4-20-4z"/><path id="aM" d="m2 0q0 0 0 1q0 1 0 1q5 0 8 1q3 1 4 3q1 3 2 8l14 77q1 7-1 9q-2 2-9 2q-1 0-1 1q0 1 1 1q3 0 8 0q4 0 8 0q5 0 10 0q4 0 8 0q0 0 0-1q0-1 0-1q-6 0-8-1q-3-1-4-3q-2-3-3-8l-13-76q-1-7 0-9q2-2 9-2l17 0q10 0 16 6q6 6 10 16q0 1 0 1q0 0 1 0q1 0 1-1q0 0 0 0q-2-5-4-11q-1-6-2-12q0-2-2-2z"/><path id="aN" d="m16 0q-3 0-4 2q-1 1-1 4q0 1 1 3l86 181q1 2 2 4q0 3 1 6q1 3 1 6q0 3 0 3q3 1 6 1q2 1 4 3q4 1 6 5q3 5 4 5q2 0 2-1q1-1 2-3l79-210q0-1 0-2q0-3-1-5q-1-2-4-2zm34 18l112 0q5 0 5 4q0 3-1 8q-2 4-4 10l-49 140q-2 6-3 6q0 0-3-6l-66-145q-1-4-2-7q-1-2-1-3q0-5 4-6q4-1 8-1z"/><path id="aO" d="m6 17q-1 0-1 1q0 2 0 4q0 1 1 1l66 0q1 0 1-1q0-2 0-4q0-1-1-1zm0 23q-1 0-1 2q0 1 0 2q0 2 1 2l66 0q1 0 1-2q0-1 0-2q0-2-1-2z"/><path id="aP" d="m32 14q0-5 2-8q1-2 5-3q4-1 13-1q0 0 0-1q0-1 0-1q-6 0-12 0q-6 0-13 0q-6 0-11 0q-5 0-9 0q0 0 0 1q0 1 0 1q6 0 9 1q3 1 4 3q1 3 1 8l0 77q0 5-1 7q-1 2-4 3q-3 1-9 1q0 0 0 1q0 1 0 1q4 0 9 0q5 0 10 0q5 0 11 0q6 1 13 1q9 0 16-3q8-3 12-9q5-6 6-16q0-9-4-15q-3-6-8-10q-6-4-12-6q-7-2-13-2q-2 0-5 0q-2 0-3 0q-1 1-1 2q0 1 1 1q0 0 0 0q1-1 3-1q2 0 3 0q7 0 13 3q6 3 10 9q3 6 3 16q0 9-3 16q-4 6-10 9q-5 3-12 3q-6 0-9 0q-3-1-4-4q-1-2-1-8z"/><path id="aQ" d="m92 0q-2 0-8 6q-7 7-16 19q-8 11-19 27q-4-1-9-1q-2 0-4 0q-2 0-4 0l0-37q0-5 1-8q1-2 4-3q3-1 10-1q0 0 0-1q0-1 0-1q-4 0-9 0q-5 0-11 0q-5 0-11 0q-5 0-9 0q0 0 0 1q0 1 0 1q6 0 9 1q4 1 5 3q1 3 1 8l0 77q0 5-1 7q-1 2-4 3q-3 1-9 1q-1 0-1 1q0 1 1 1q4 0 9 0q5 0 10 0q5 0 12 0q7 1 11 1q14 0 21-7q7-6 7-15q0-9-6-17q-5-7-13-11q0 0-1 0q14-19 24-31q10-12 18-17q7-5 14-5q0 0 0-1q0-1 0-1zm-26 78q0 9-2 14q-3 6-8 8q-5 2-12 2q-6 0-9-2q-3-2-3-10l0-35q3 0 6 0q2 0 4 0q14 0 19 5q5 6 5 18z"/><path id="aR" d="m36-2q-10 0-16 4q-7 5-10 12q-4 8-4 16q0 10 4 18q5 8 14 13q8 5 17 5q10 0 15-5q4-5 4-14q0-2 0-3q0-2-2-2l-6 0l-35 0q0-2 0-6q0-9 3-16q3-8 9-12q6-4 14-4q6 0 9 2q4 1 8 3q0 0 0 1q0 0 1-1q0-1 0-1q-6-6-12-8q-6-2-13-2zm13 47q0 8-3 13q-4 4-10 4q-9 0-14-6q-3-5-4-12zm-11 34q-1-1-2 0q0 0 0 0q0 0 0 0l8 40q0 1 2 1q2 1 4 2q2 0 3 0q1 0 1 0q1-1 0-1z"/><path id="aS" d="m61-2q-12 0-21 4q-10 4-17 12q-7 8-11 18q-4 9-4 20q0 14 6 24q5 10 14 16q8 7 18 10q11 4 21 4q12 0 22-4q10-5 17-12q6-8 10-18q4-9 4-19q0-11-5-21q-5-10-13-18q-8-8-18-12q-11-4-23-4zm6 4q11 0 20 5q9 5 15 15q5 11 5 26q0 16-6 28q-6 12-17 19q-10 7-24 7q-19 0-29-12q-10-12-10-32q0-12 3-22q3-10 10-18q6-8 14-12q9-4 19-4z"/><path id="aT" d="m4 0q0 0 0 1q0 1 0 1q7 0 9 2q2 2 2 10l0 86q0 6-1 8q-2 3-4 3q-3 0-8-2q0-1-1 0q0 0 0 0q-1 1 0 1l21 11l1 0q0 0 1-1q0 0 0 0l0-68q6 6 11 10q7 4 15 4q9 0 14-5q5-5 5-15l0-32q0-8 2-10q2-2 9-2q0 0 0-1q0-1 0-1q-4 0-8 0q-3 0-8 0q-4 0-8 0q-4 0-7 0q0 0 0 1q0 1 0 1q7 0 9 2q2 2 2 10l0 26q0 20-16 20q-6 0-12-4q-4-3-8-7l0-35q0-8 2-10q2-2 9-2q0 0 0-1q0-1 0-1q-3 0-7 0q-4 0-8 0q-5 0-9 0q-4 0-7 0z"/><path id="aU" d="m17 12q5 0 8-4q3-3 3-11q0-7-4-14q-3-7-8-13q-1-1-2 0q0 0 0 1q4 5 5 10q1 5 1 10q0 5-1 8q0 0 0 0q-1 0-3 0q-3 0-4 1q-2 2-2 5q0 3 2 5q2 2 5 2zm0 33q-3 0-5 2q-2 2-2 5q0 3 2 5q2 2 5 2q3 0 5-2q2-2 2-5q0-3-2-5q-2-2-5-2z"/><path id="aa" d="m91-2q-4 0-5 4q-1 4 0 13l5 26q2 10 1 15q-2 4-6 4q-5 0-11-7q-6-7-11-20q-5-13-8-32q-1-2-6-2q-2 0-3 0q-1 0-1 1q0 0 1 4q1 4 2 8l5 29q2 10 0 15q-1 4-5 4q-5 0-11-7q-6-7-11-20q-5-13-8-32q-1-2-5-2q-3 0-4 0q0 0 0 1q0 0 1 4q1 4 1 8l7 38q1 7-1 9q-1 0-2 0q-2 0-5-2q-3-2-6-5q0-1-1-1q0 0 0 1q-1 0-1 0q0 1 1 1q5 7 10 10q5 3 9 3q4 0 5-4q1-3 0-12l-4-19q1 3 2 5q6 14 13 22q7 8 15 8q7 0 10-5q2-5-1-17l-2-14q1 3 2 6q5 14 13 22q7 8 15 8q7 0 9-5q2-5 0-17l-5-29q-1-5 0-7q1-3 3-3q2 0 4 2q3 2 6 6q1 1 2 0q0-1 0-1q-6-7-10-10q-4-4-9-4z"/><path id="ab" d="m26-2q-9 0-14 4q-5 5-6 12q-2 8-1 17q1 6 5 13q3 6 8 11q6 5 12 8q6 3 13 3q7 0 9-2q3-2 3-6q-1-4-5-8q-4-4-10-7q-6-3-13-5q-6-2-12-2q-1-9 0-16q1-8 5-12q5-4 12-4q4 0 8 1q5 1 9 4q1 1 1 0q1-1 0-1q-6-6-12-8q-6-2-12-2zm-10 40q10 2 17 5q9 4 11 11q1 4-2 6q-3 2-6 2q-6 0-10-4q-4-3-7-9q-2-5-3-11z"/><path id="ac" d="m17-2q-7 0-11 3q-5 3-4 7q0 3 2 4q1 1 3 1q2 0 3-1q1-2 2-4q2-3 4-4q2-2 6-2q4 0 7 2q3 3 3 8q1 5-1 9q-2 4-6 7q-4 3-7 6q-4 3-6 6q-2 4-1 10q1 5 5 8q3 4 8 6q4 2 9 2q6 0 10-2q4-3 4-6q-1-3-3-4q-1-1-2-1q-3 0-4 1q-2 2-3 4q-1 2-3 3q-2 1-5 1q-3 0-5-2q-3-1-4-4q0-5 2-9q2-4 6-7q4-3 8-6q3-4 5-8q2-4 1-9q-1-5-4-9q-3-4-8-7q-5-3-11-3z"/><path id="ad" d="m26-2q-7 0-12 3q-4 3-6 9q-3 5-4 12q0 6 2 12q2 10 8 18q6 7 13 10q7 4 15 4q4 0 7-1q3-1 5-3q2-2 2-5q0-3-2-5q-1-1-4-1q-2 0-4 1q-1 2-2 5q0 2-2 4q-2 2-6 2q-6 0-10-3q-4-4-6-9q-3-5-4-12q-2-9-1-17q1-8 5-13q5-5 13-5q6 0 10 2q4 2 8 5q0 1 1 0q1-1 0-1q-7-6-14-9q-6-3-12-3z"/><path id="ae" d="m18 1q0-2-5-2q-2 0-3 0q0 0 0 1q0 0 0 4q1 4 2 8l6 31q1 7 0 11q0 3-1 4q-1 1-3 1q-2 0-4-2q-3-2-6-4q0 0 0 0q0 0-1 0q0 1 0 1q5 6 9 9q5 3 9 3q3 0 5-2q1-2 2-7q0-5-2-13l-3-20q1 6 3 11q3 8 7 15q4 7 7 12q4 4 8 4q2 0 4-2q3-1 4-3q2-2 1-4q0-2-1-3q-2-2-4-2q-3 0-4 2q-1 1-2 2q-1 2-3 2q-2 0-5-4q-3-4-6-10q-3-7-6-14q-2-8-4-16q-2-6-3-12z"/><path id="af" d="m18-2q-4 0-5 4q-1 4 0 13l7 35q2 7-1 9q-1 0-2 0q-1 0-5-2q-3-2-6-5q0-1-1-1q0 0-1 1q0 0 0 0q0 1 0 1q6 7 11 10q5 3 9 3q4 0 5-4q1-3-1-12l-6-35q-1-5 0-7q0-3 2-3q2 0 5 2q3 2 7 5q0 1 1 0q1 0 0-1q-5-6-10-9q-5-4-9-4zm11 88q-4 0-5 2q-2 1-2 5q0 3 2 5q1 2 5 2q3 0 5-2q2-2 2-5q0-7-7-7z"/><path id="ag" d="m18-46q-4 0-7 2q-3 2-3 6q1 2 2 3q2 1 3 1q2 0 3-2q2-1 2-2q1-2 2-4q1-1 2-1q5 0 6 7q1 2-1 6q-2 3-5 7q-2 3-2 6q-1 3 1 7l4 8q-6 0-11 3q-4 3-6 9q-3 5-4 12q0 6 2 12q2 10 8 18q6 7 13 10q7 4 15 4q4 0 7-1q3-1 5-3q2-2 2-5q0-3-2-5q-1-1-4-1q-2 0-4 1q-1 2-2 5q0 2-2 4q-2 2-6 2q-6 0-10-3q-4-4-6-9q-3-5-4-12q-2-9-1-17q1-8 5-13q5-5 13-5q6 0 10 2q4 2 8 5q0 1 1 0q1-1 0-1q-7-6-13-9q-6-3-12-3q-1-3-1-5q0-3 1-5q1-3 3-5q2-4 4-7q2-4 1-7q-1-3-3-7q-2-3-6-6q-3-2-8-2z"/><path id="ah" d="m14-2q-6 0-9 4q-3 4-1 13q1 9 6 18q4 9 10 17q6 7 14 12q7 4 13 4q3 0 7 0q2-2 4-4q0 0 1 0q3 3 3 6q1 0 2 0q0 0 0 0q0 0 0 0l-9-53q-2-8 1-9q0-1 1-1q2 0 5 2q3 2 6 6q1 0 2-1q0 0 0 0q-6-7-10-10q-5-4-9-4q-4 0-5 4q-2 4 0 13l3 17q-3-7-8-13q-6-10-13-15q-8-6-14-6zm6 8q4 0 9 4q5 3 9 9q5 6 8 13q4 7 6 14q1 6-2 10q-2 5-8 5q-6-1-12-6q-6-5-11-13q-5-8-6-19q-1-9 1-13q1-4 6-4zm8 74q0 0-1 0q-1 1 0 1q1 2 3 5q3 2 6 4q2 1 5 1q3 0 7-1q3-1 6-2q4-1 8-1q4 0 6 1q1 2 3 4q0 0 1 0q0-1 0-1q-5-7-8-9q-2-2-6-2q-3 0-6 1q-4 1-8 2q-3 1-7 1q-4 0-5-1q-2-1-4-3z"/><path id="ai" d="m26-2q-8 0-14 4q-5 5-6 13q-2 8 0 17q1 10 6 18q6 8 13 12q7 4 15 4q9 0 14-4q6-5 8-12q1-8-1-18q-2-10-7-18q-6-8-14-12q-7-4-14-4zm6 4q6 0 12 6q6 6 8 17q1 6 0 13q0 6-2 12q-2 6-6 9q-3 3-8 3q-7 0-13-6q-6-6-8-17q-1-6-1-13q0-6 2-12q3-5 6-8q4-4 10-4z"/><path id="aj" d="m65-2q-4 0-6 1q-2 1-2 3q0 4 12 6q13 2 20 7q7 5 11 14l1 3q-22 1-38 7q-19 8-29 22q-9 14-9 31q0 23 11 42q10 19 28 32q18 14 41 21q23 7 47 7q0 2 0 4l0 3q0 5-4 9q-3 3-11 4q-5 1-7 3q-1 2-1 4q0 2 3 3q3 1 7 1q8 0 13-1q6 0 11 0q5 0 12 0q7 0 11 0q5 0 10 0q5 1 13 1q8 0 8-4q0-2-3-4q-4-2-9-3q-12-2-19-6q-6-4-10-14q40-2 59-19q19-17 19-42q0-19-10-37q-10-19-28-34q-17-16-42-24q-22-7-48-7q0-1 0-1q-1-3-1-7q0-7 5-11q4-3 13-4q5-1 7-2q1-2 1-4q0-2-3-3q-3-1-7-1q-8 0-13 0q-6 1-11 2q-5 0-12 0q-11 0-19-1q-8-1-21-1zm40 43l45 145q-21 0-38-8q-17-7-30-20q-13-14-20-31q-7-17-7-37q0-22 13-36q12-13 37-13zm24 0q21 0 39 9q18 8 30 22q13 14 20 31q7 17 7 34q0 20-13 33q-12 14-38 17z"/><path id="ak" d="m32-20q-9 7-14 18q-5 10-6 24q-1 13 2 29q2 15 8 29q6 14 15 24q9 11 20 17q1 0 1-1q0 0 0 0q0 0 0 0q-13-12-22-30q-8-17-12-39q-4-22-2-39q3-18 12-30q0 0 0-1q-1-1-2-1z"/><path id="al" d="m55 0q0 0 0 1q0 1 0 1q4 0 6 0q2 1 3 2q0 2-1 4l-15 40l-25-32q-3-5-4-8q-1-3 1-4q2-2 6-2q1 0 1-1q0-1-1-1q-4 0-8 0q-3 0-9 0q-3 0-5 0q-3 0-6 0q-1 0-1 1q0 1 1 1q5 0 10 4q6 3 12 10l27 35l-15 39q-3 7-6 10q-3 2-8 2q0 0 0 1q0 1 0 1q3 0 6 0q2 0 5 0q6 0 11 0q5 0 8 0q1 0 1-1q0-1-1-1q-5 0-6-2q-2-1-1-4l14-37l22 28q4 5 5 9q1 3-1 4q-2 2-6 2q-1 0-1 1q0 1 1 1q3 0 7 0q4 0 10 0q3 0 6 0q2 0 5 0q1 0 1-1q0-1-1-1q-5 0-11-4q-6-4-12-12l-24-30l17-42q2-7 5-10q4-2 10-2q1 0 1-1q0-1-1-1q-3 0-6 0q-4 0-8 0q-6 0-10 0q-5 0-9 0z"/><path id="am" d="m21 121q9-6 14-17q5-10 7-24q1-14-2-29q-3-16-9-29q-6-14-15-25q-9-11-20-17q0 0-1 1q0 1 0 1q0 0 0 0q14 12 22 29q8 17 12 40q4 22 2 39q-2 17-11 30q0 0 0 0q0 1 1 1q0 0 0 0z"/><path id="an" d="m2-30q-1 0-1 0q0 0-1 0q0 1 0 1q0 1 0 1q6 5 10 10q3 6 4 12q0 3 0 5q-2 0-3 0q-3 0-5 2q-2 2-2 5q0 2 2 4q2 2 6 2q5 0 8-4q2-4 1-11q-2-8-7-15q-5-6-12-12z"/><path id="ao" d="m56-2q-4 0-5 4q-1 4 0 13l5 26q3 14-2 18q-2 1-4 1q-5 0-11-7q-6-7-11-20q-6-13-9-32q0-2-5-2q-3 0-4 0q0 0 0 1q0 0 1 4q1 4 1 8l7 38q1 7-1 9q-1 0-2 0q-2 0-5-2q-3-2-6-5q0-1-1-1q0 0 0 1q-1 0-1 0q0 1 1 1q5 7 10 10q5 3 9 3q4 0 5-4q1-3 0-12l-4-21q1 3 2 7q6 14 14 22q7 8 16 8q7 0 10-5q2-5-1-17l-5-29q-1-5 0-7q0-3 2-3q2 0 5 2q3 2 7 6q0 0 0 0q0 0 1 0q0-1 0-1q0 0 0 0q-5-7-10-10q-5-4-9-4z"/><path id="ap" d="m20-2q-3 0-6 1q-3 1-4 5q-2 3-1 8l7 39q2 6 1 7q-1 2-6 2q0 0-1 0q0 0 0 1q0 1 1 1q6 0 10 4q4 4 5 9q1 1 2 1q1 0 1-1q0 0 0 0l-2-12q3 0 7 0q5 0 9 1q4 0 5 0q1 0 2 0q0-1 0-2q-1-1-2-3q-2-2-4-2q0 0-4 1q-3 0-7 0q-3 0-7 1l-7-42q-1-7 1-10q2-3 7-3q5 0 9 2q3 3 7 6q0 0 1-1q0 0 0-1q0 0 0 0q-8-6-14-9q-5-3-10-3z"/><path id="aq" d="m26-2q-8 0-14 4q-5 5-6 13q-2 8 0 17q1 10 6 18q6 8 13 12q7 4 15 4q9 0 14-4q6-5 8-12q1-8-1-18q-2-10-7-18q-6-8-14-12q-7-4-14-4zm6 4q6 0 12 6q6 6 8 17q1 6 0 13q0 6-2 12q-2 6-6 9q-3 3-8 3q-7 0-13-6q-6-6-8-17q-1-6-1-13q0-6 2-12q3-5 6-8q4-4 10-4zm7 77q0 0 0 0q-1-1-1 0q-1 0-1 0q0 0 0 0l16 40q0 1 1 1q2 1 4 2q3 0 4 0q1 0 1 0q0-1 0-1z"/><path id="ar" d="m30-1q-8 0-12 5q-5 5-5 15l0 26q0 6-1 9q-2 3-4 3q-3 0-6-2q-1 0-1 1q0 1 0 1q0 0 0 0l19 9q0 0 0 0q1 0 2 0q0-1 0-2l0-39q0-10 4-15q3-5 10-5q6 0 13 4q4 3 8 7l0 29q0 6-1 9q-1 3-4 3q-2 0-6-2q0 0-1 1q0 1 0 1q0 0 1 0l18 9q0 0 0 0q1 0 2 0q0-1 0-2l0-46q0-6 2-8q1-3 4-3q2 0 4 1q2 0 5 2q0 0 1 0q0-1 0-1q0-1 0-1l-20-10q0 0 0 0q-2 0-4 4q-1 4-1 10l0 1q-6-6-11-10q-8-4-16-4zm9 80q0-1-1 0q0 0 0 0q0 0 0 0l8 40q0 1 2 1q2 1 4 2q2 0 3 0q1 0 1 0q0-1 0-1z"/><path id="as" d="m5 0q0 0 0 1q0 1 0 1q7 0 9 2q3 2 3 10l0 37q0 4-1 6q-1 2-4 3q-2 0-7 0q-1 0-1 1q0 1 1 1q7 0 9 2q2 2 2 6q1 27 10 39q10 12 27 12q9 0 14-3q5-2 5-6q0-2-2-4q-1-1-3-1q-2 0-3 1q-2 1-4 3q-2 3-5 5q-3 2-8 2q-9 0-15-10q-6-11-6-35l0-11q5 1 9 1q6 1 13 1q0 0 0-1q1-1 1-3q0-1-1-2q0-2-1-2q-6 2-12 2q-4 1-9 1l0-45q0-5 1-8q1-2 5-3q4-1 11-1q0 0 0-1q0-1 0-1q-6 0-11 0q-5 0-11 0q-4 0-9 0q-4 0-7 0z"/><path id="at" d="m5 28q0 0-1 2q0 1 0 2q1 2 1 2l43 8q0 0 1 0q0 0 0-1q0-2 0-3q0-2-1-3z"/><path id="au" d="m56 59q7-1 12-4q7-4 10-11q2-6 1-14q-2-8-7-15q-6-7-14-11q-7-5-16-5q-5 0-12 1q-6 0-11 0q-5 0-9 0q-5 0-8 0q0 0 0 0q-1 0-1 1q0 1 1 1q5 0 8 1q3 1 4 3q2 3 3 8l14 77q1 7-1 9q-2 2-10 2q0 0 0 0q-1 0-1 1q0 1 1 1q4 0 8 0q5 0 9 0q5 0 10 0q5 1 8 1q10 0 15-3q6-3 8-8q2-6 1-12q-2-9-10-16q-5-4-13-7zm-17-57q13 0 20 7q7 7 9 18q2 13-4 21q-5 7-18 7q-4 0-8 0q-2 0-4 0l-8-42q0-6 2-9q2-2 11-2zm13 100q-4 0-6 0q-2-1-4-4q-1-2-2-8l-5-31q1 0 3 0q3-1 3-1q13 0 20 7q7 7 8 17q1 6 0 10q-1 5-5 8q-4 2-12 2z"/><path id="av" d="m-10-46q0 0 0 0q0 0 0 1q0 1 0 1q4 1 6 2q2 1 3 4q1 2 1 7l14 79q-3-2-7-5q-1-1-1 0q-1 1 0 1q0 0 0 0q4 4 9 8l2 12q0 1 1 2q2 1 4 2q1 2 2 4q2 2 2 4q0 1 1 1q1 0 1 0q0-1 0-1l-3-18q1 1 2 1q10 7 21 7q9 0 13-6q4-6 2-18q-1-8-5-16q-4-8-9-14q-5-6-11-9q-7-3-14-3q-6 0-9 0q0 0-1 0l-5-30q-1-6 1-8q2-2 9-2q0 0 0 0q1 0 1 0q0-1 0-1q0-1-1-1zm34 100l-8-47q1 0 2-1q5-2 11-2q7 0 12 4q5 5 9 12q3 8 4 17q1 5 0 11q-1 5-4 8q-3 4-10 4q-7 0-15-5q0 0-1-1z"/><path id="aw" d="m38-2q0 0-1 0q-1-4-1-7q-1-3 1-4q2-1 6-4q3-2 6-5q3-3 3-8q0-3-2-7q-2-4-6-7q-3-2-9-2q-5 0-8 2q-3 1-3 4q0 3 2 4q1 2 3 2q2 0 3-2q1-1 2-2q1-2 2-3q1-1 4-1q6 0 6 6q0 4-3 8q-3 3-12 7q-2 1-2 2q0 1 1 3q1 4 2 6q0 1 1 3q1 2 2 5q-9 1-15 5q-7 5-10 13q-4 7-4 15q0 8 3 15q3 6 9 10q5 5 12 8q6 2 12 2q5 0 10-2q4-1 7-3q3-2 3-5q0-2-2-4q-1-2-4-2q-3 0-4 2q-2 2-3 4q-2 3-5 4q-2 2-7 2q-10 0-15-7q-5-7-5-19q0-9 3-16q3-7 9-12q6-4 16-4q5 0 9 1q4 1 8 4q0 0 0 1q0 0 1-1q1-1 0-1q-6-5-11-8q-6-2-14-2z"/><path id="ax" d="m30-47q-12 0-18 5q-7 6-7 14q0 8 7 15q4 5 11 9q-6 1-10 3q-3 3-3 8q0 6 3 10q3 4 9 8q-1 0-1 0q-5 3-8 8q-3 5-3 11q0 6 3 11q3 5 9 8q6 3 14 3q9 0 14-4q2-1 3-2q4 2 7 4q5 2 11 2q1 0 1-2q0-1 0-2q0-2 0-4q-1-2-1-2q0 0-1 0q-1 1-4 2q-3 1-7 1q-2 0-4-1q0 0 0 0q2-2 3-4q3-5 3-10q0-6-3-11q-3-5-9-8q-6-3-14-3q-6 0-11 2q-3-3-4-5q-2-3-2-6q0-3 2-5q2-2 8-3q5-1 14-1q4 0 9 0q5 0 9-2q5-1 8-4q3-4 3-11q0-7-3-13q-4-6-10-11q-5-5-12-7q-8-3-16-3zm-4 43q-1-1-2-2q-4-3-6-7q-3-4-3-10q0-5 3-9q2-5 7-8q5-2 12-2q11 0 19 6q7 6 7 17q0 7-3 10q-4 3-10 3q-6 1-14 1q-5 0-10 1zm12 29q5 0 8 3q4 4 4 12q0 8-2 13q-2 5-6 7q-5 3-10 3q-6 0-9-3q-3-4-3-12q0-8 2-13q3-5 8-7q4-3 8-3z"/><path id="ay" d="m53-2q-14 0-23 5q-9 5-14 13q-4 8-6 18q-1 9 1 19q2 12 8 21q6 10 15 17q8 7 18 11q10 4 20 4q7 0 14-2q7-1 10-4q2-1 2-2q0 0 0-2l-2-18q0-1-1-1q-1 0-1 1q-1 13-8 18q-8 6-20 6q-11 0-20-6q-9-5-15-15q-6-10-8-23q-2-12-1-22q2-11 6-19q4-8 10-13q7-4 16-4q9 0 18 6q9 6 17 19q0 1 1 0q0 0 0 0q0 0 0-1l-5-17q0-3-1-3q0-1-2-1q-8-3-16-4q-7-1-13-1z"/><path id="az" d="m47 104q0 0 0-1q0-1 0-1q-6 0-9-1q-2-1-3-3q-1-3-1-8l0-95q0-16-8-26q-7-10-22-10q-5 0-8 2q-4 2-4 5q0 3 2 4q1 2 4 2q3 0 4-2q2-1 3-2q1-2 3-4q1-1 4-1q5 0 8 7q3 6 3 22l0 99q0 5-1 7q-1 2-4 3q-4 1-11 1q0 0 0 1q0 1 0 1q5 0 11 0q5 0 11 0q5 0 9 0q5 0 9 0z"/><path id="b" d="m40 38l3 150q-11 16-29 16q-1 0-1 2q0 2 1 2q6 0 12 0q7 0 12 0q6 0 11 0q5 0 8 0q5 0 7-3q3-3 8-14l74-150l70 159q2 4 4 6q3 2 6 2q2 0 6 0q3 0 8 0q9 0 16 0q6 0 13 0q0 0 0-2q0-2 0-2q-16 0-23-5q-8-5-8-19l7-153q1-10 3-15q2-5 8-6q5-2 17-2q1 0 1-2q0-2-1-2q-8 0-19 0q-10 1-22 1q-11 0-20-1q-10 0-18 0q-1 0-1 2q0 2 1 2q17 0 22 4q4 5 3 19l-6 147l-74-172q0-1-3-1q-2 0-2 1l-83 170l-3-134q0-17 6-26q7-8 22-8q1 0 1-2q0-2-1-2q-7 0-15 0q-8 1-17 1q-9 0-17-1q-8 0-15 0q-1 0-1 2q0 2 1 2q14 0 20 8q7 9 8 26z"/><path id="c" d="m235 4q1 0 1-2q0-2-1-2q-10 0-20 0q-10 1-20 1q-11 0-19-1q-7 0-17 0q-1 0-1 2q0 2 1 2q16 0 20 5q4 5-4 21l-27 57l-80 0l-19-43q-8-20-1-30q8-10 29-10q2 0 2-2q0-2-2-2q-10 0-19 0q-8 1-20 1q-13 0-20-1q-8 0-18 0q-2 0-2 2q0 2 2 2q9 0 16 4q6 3 12 12q6 10 14 27l71 164q0 1 2 1q2 0 2-1l80-165q8-17 14-26q6-9 11-12q6-4 13-4zm-91 90l-38 81l-35-81zm-61 132q-2 0-2 2q-1 1 0 1q0 1 0 1q15 8 27 16q11 8 23 16q2 1 7 0q5-1 10-4q5-2 8-4q2-1 2-1q0-1-1-1q-23-6-40-12q-17-6-34-14z"/><path id="d" d="m109-3q-16 1-30 8q-20 8-34 23q-14 15-21 34q-8 20-8 42q0 27 10 48q11 20 28 34q18 13 38 20q21 6 42 6q24 0 44-9q19-9 33-24q14-15 21-34q7-19 7-39q0-23-9-43q-10-20-26-35q-16-15-37-23q-5-3-11-4q22-14 51-27q31-14 66-24q35-11 70-17q35-6 66-6q46 0 73 8q0 0 1 0q0 0 1-1q0-2 0-2q0 0-1 0q-6-2-17-6q-12-4-31-6q-19-3-46-3q-24 0-54 3q-30 4-67 13q-37 9-80 27q-37 14-79 37zm25 6q21 0 38 11q17 11 27 32q10 21 10 51q0 31-11 55q-11 24-31 38q-20 14-47 14q-35 0-54-24q-19-23-19-64q0-24 6-44q6-21 17-36q12-16 28-24q16-9 36-9z"/><path id="e" d="m191 170q0 17-7 26q-8 8-23 8q-1 0-1 2q0 2 1 2q8 0 16 0q8-1 18-1q8 0 17 1q8 0 15 0q0 0 0-2q0-2 0-2q-14 0-21-8q-6-9-6-26l0-94q0-25-10-43q-10-18-28-27q-18-10-42-10q-25 0-44 10q-18 9-28 26q-11 18-11 42l0 107q0 10-2 15q-2 5-8 6q-6 2-17 2q-1 0-1 2q0 2 1 2q8 0 18 0q10-1 22-1q12 0 22 1q10 0 18 0q1 0 1-2q0-2-1-2q-11 0-17-2q-6-2-8-7q-2-5-2-14l0-95q0-40 17-60q18-20 49-20q29 0 45 18q17 19 17 51z"/><path id="f" d="m69 27q0-10 2-15q2-5 8-6q6-2 17-2q1 0 1-2q0-2-1-2q-8 0-18 0q-10 1-22 1q-12 0-22-1q-11 0-19 0q-1 0-1 2q0 2 1 2q12 0 18 2q6 1 8 6q2 5 2 15l0 154q0 10-2 15q-2 5-8 6q-6 2-18 2q-1 0-1 2q0 2 1 2q8 0 19 0q10-1 22-1q12 0 22 1q10 0 18 0q1 0 1-2q0-2-1-2q-11 0-17-2q-6-2-8-7q-2-5-2-14z"/><path id="g" d="m41 38l0 152q-7 6-12 10q-9 4-17 4q-1 0-1 2q0 2 1 2q6 0 12 0q7 0 12 0q8 0 14 0q7 0 11 0q4 0 6-4q2-3 10-13l124-150l0 129q0 17-6 26q-6 8-20 8q-1 0-1 2q0 2 1 2q7 0 15 0q7-1 15-1q9 0 17 1q8 0 15 0q0 0 0-2q0-2 0-2q-14 0-21-8q-7-9-7-26l0-174q0-1-1-1q-2 0-2 0l-157 185l0-142q0-17 7-26q6-8 20-8q0 0 0-2q0-2 0-2q-7 0-14 0q-8 1-17 1q-8 0-17-1q-8 0-15 0q-1 0-1 2q0 2 1 2q14 0 21 8q7 9 7 26z"/><path id="h" d="m156 0l-142 0q-1 0-1 2q0 2 1 2q12 0 18 2q5 1 7 6q2 5 2 15l0 154q0 10-2 15q-2 5-7 6q-6 2-18 2q-1 0-1 2q0 2 1 2l136 0q4 0 4-3l0-42q0-1-2-1q-1 0-2 1q-2 18-12 27q-11 10-29 10l-17 0q-10 0-15-2q-5-1-7-6q-2-4-2-12l0-68l36 0q17 0 25 6q8 6 8 18q0 1 2 1q2 0 2-1q0-10 0-16q0-5 0-12q0-7 1-15q0-8 0-16q0-1-2-1q-2 0-2 1q0 14-8 21q-9 7-27 7l-35 0l0-77q0-8 2-12q1-5 6-6q5-2 14-2l22 0q19 0 32 11q12 11 17 32q0 0 0 0q0 1 2 0q2 0 2-1q-2-9-3-22q-1-12-1-23q0-5-5-5z"/><path id="i" d="m13 0q-1 0-1 2q0 2 1 2q12 0 18 2q6 1 8 6q2 5 2 15l0 154q0 10-2 15q-2 5-7 6q-6 2-18 2q-1 0-1 2q0 2 1 2l136 0q4 0 4-3l0-42q0-1-2-1q-1 0-2 1q-2 18-12 27q-11 10-29 10l-17 0q-14 0-19-4q-5-4-5-15l0-73l30 0q19 0 27 6q8 6 8 18q0 1 2 1q2 0 2-1q0-10 0-16q0-5 0-12q0-7 1-15q0-8 0-16q0-1-2-1q-2 0-2 1q0 14-9 21q-9 7-28 7l-29 0l0-73q0-10 2-15q3-5 12-7q8-2 25-2q0 0 0-2q0-2 0-2q-11 0-24 0q-13 1-29 1q-11 0-22-1q-11 0-19 0z"/><path id="j" d="m66 202q-20 0-32-12q-12-11-17-37q-1 0-3 0q-1 0-1 1q0 4 1 12q1 8 2 18q0 9 0 18q1 8 1 14q0 1 2 1q2 0 2-1q0-4 3-6q4-1 8-2q5 0 8 0q28-1 67-1q23 0 37 1q14 0 27 0q11 0 17 2q7 1 8 7q1 1 2 1q2 0 2-1q0-5 0-14q-1-9-2-19q0-10 0-18q-1-8-1-12q0-1-2-1q-2 0-2 1q-2 26-13 37q-11 11-33 11q-11 0-17-2q-6-1-8-6q-2-4-2-13l0-154q0-10 2-15q3-5 10-6q6-2 19-2q1 0 1-2q0-2-1-2q-9 0-20 0q-11 1-24 1q-13 0-24-1q-11 0-21 0q-1 0-1 2q0 2 1 2q13 0 20 2q7 1 10 6q2 5 2 15l0 154q0 9-2 13q-2 5-8 6q-6 2-18 2z"/><path id="k" d="m68 106q8 0 13 0q5-1 10-2q5-2 9-5q2 0 2-1q0 0 0-2l2-20q0 0 0 0q-1-1-2 0q-4 14-12 21q-8 7-22 7q-14 0-24-6q-11-7-17-18q-6-12-6-27q0-11 3-21q4-9 11-16q7-8 15-12q9-4 18-4q14 0 22 7q9 7 14 21q0 0 1 0q1 0 1-1l-2-18q0-2 0-3q-1 0-2-1q-8-4-16-5q-8-2-18-2q-17 0-30 7q-14 7-22 19q-8 12-8 29q0 12 4 21q5 10 14 17q8 7 19 11q11 4 23 4z"/><path id="l" d="m38-2q-9 0-16 5q-8 5-12 13q-4 8-4 17q0 9 3 15q3 6 9 10q5 4 12 6q6 2 12 2q10 0 17-5q7-5 11-13q4-7 4-16q0-10-5-18q-5-8-13-12q-8-4-18-4zm5 3q9 0 14 7q5 6 5 20q0 10-3 18q-3 8-9 12q-6 5-14 5q-9 0-14-7q-5-6-5-18q0-10 3-18q4-9 10-14q6-5 13-5z"/><path id="m" d="m52 0q0 0 0 1q0 1 0 1q7 0 9 2q2 2 2 10l0 26q0 10-4 15q-4 5-12 5q-6 0-12-4q-4-3-8-6l0-36q0-8 2-10q2-2 9-2q0 0 0-1q0-1 0-1q-3 0-7 0q-4 0-9 0q-4 0-8 0q-4 0-6 0q-1 0-1 1q0 1 1 1q6 0 8 2q2 2 2 10l0 32q0 6-2 8q-1 3-4 3q-2 0-4-1q-2 0-5-1q-1-1-1 0q0 1 0 1l20 10q0 0 0 0q2 0 4-4q1-3 1-10l0 0q6 6 11 10q7 4 15 4q9 0 14-5q5-5 5-15l0-32q0-8 2-10q2-2 8-2q1 0 1-1q0-1-1-1q-2 0-6 0q-4 0-8 0q-5 0-9 0q-4 0-7 0z"/><path id="n" d="m17 54q0-4 2-7q2-3 5-5q4-2 8-4q4-2 8-4q4-3 6-6q3-4 3-10q0-5-3-10q-2-4-8-7q-5-3-13-3q-4 0-7 1q-4 1-9 4q0 1-1 1q0 0 0 1l0 13q0 1 1 1q1 0 1-1q2-5 5-9q3-4 7-6q4-2 8-2q5 0 8 3q3 3 3 8q0 5-3 8q-2 3-6 5q-3 2-6 4q-4 2-8 4q-4 2-6 5q-3 4-3 10q0 6 3 10q4 4 9 6q5 2 11 2q3 0 6 0q3-1 6-2q2-1 2-2q0-3 0-6q-1-2-1-6q0 0-1 0q-1 0-1 0q0 4-3 7q-2 3-6 5q-4 1-8 1q-4 0-6-2q-3-2-3-7z"/><path id="o" d="m31-2q-4 0-7 1q-4 1-6 4q-3 3-3 9l0 39q0 4-1 6q0 2-2 3q-1 0-5 0q-1 0-1 1q0 1 1 1q7 0 11 4q4 3 4 9q0 0 2 0q1 0 1 0l0-13q5 1 10 1q6 1 13 1q0 0 0-1q1-1 1-3q0-1-1-2q0-2 0-2q-7 2-13 2q-5 1-10 1l0-42q0-7 3-10q4-3 10-3q4 0 8 2q3 1 6 2q0 1 1 0q0 0 0-1q0 0 0 0q-7-5-11-7q-5-2-11-2z"/><path id="p" d="m8 0q-1 0-1 1q0 1 1 1q6 0 8 2q2 2 2 10l0 32q0 6-2 8q-1 3-4 3q-2 0-4-1q-2 0-5-1q-1-1-1 0q0 1 0 1l20 10q0 0 0 0q2 0 4-4q1-3 1-10l0 0q4 4 6 7q4 4 7 5q3 2 6 2q3 0 6-2q4-2 4-5q0-2-2-3q-1-2-3-2q-3 0-4 1q-1 1-3 3q-2 1-4 1q-2 0-4-1q-1-1-4-4q-2-2-5-5l0-35q0-5 1-8q2-2 6-3q3-1 10-1q0 0 0-1q0-1 0-1q-4 0-10 0q-5 0-11 0q-5 0-9 0q-4 0-6 0z"/><path id="q" d="m30-1q-8 0-12 5q-5 5-5 15l0 26q0 6-1 9q-2 3-4 3q-3 0-6-2q-1 0-1 1q0 1 0 1q0 0 0 0l19 9q0 0 0 0q1 0 2 0q0-1 0-2l0-39q0-10 4-15q3-5 10-5q6 0 13 4q4 3 8 7l0 29q0 6-1 9q-1 3-4 3q-2 0-6-2q0 0-1 1q0 1 0 1q0 0 1 0l18 9q0 0 0 0q1 0 2 0q0-1 0-2l0-46q0-6 2-8q1-3 4-3q2 0 4 1q2 0 5 2q0 0 1 0q0-1 0-1q0-1 0-1l-20-10q0 0 0 0q-2 0-4 4q-1 4-1 10l0 1q-6-6-11-10q-8-4-16-4z"/><path id="r" d="m17 12q5 0 8-4q3-3 3-11q0-7-4-14q-3-7-9-13q-1-1-1 0q0 0 0 1q4 5 5 10q1 5 1 10q0 5-1 8q0 0 0 0q-1 0-3 0q-3 0-5 1q-2 2-2 5q0 3 2 5q2 2 6 2z"/><path id="s" d="m38-2q-11 0-18 5q-7 5-10 13q-4 7-4 15q0 8 3 15q3 6 9 10q5 5 12 8q6 2 12 2q5 0 10-2q4-1 7-3q3-2 3-5q0-2-2-4q-1-2-4-2q-3 0-4 2q-2 2-3 4q-2 3-5 4q-2 2-7 2q-10 0-15-7q-5-7-5-19q0-9 3-16q3-7 9-12q6-4 16-4q5 0 9 1q4 1 8 4q0 0 0 1q0 0 1-1q1-1 0-1q-6-5-11-8q-6-2-14-2z"/><path id="t" d="m5-46q0 0 0 1q0 1 0 1q7 0 9 2q2 2 2 10l0 78q0 6-2 8q-1 3-4 3q-2 0-4-1q-2 0-5-1q-1-1-1 1q0 0 0 0q0 0 0 1l18 9q1 0 2 0q2 0 4-4q1-4 1-10q7 7 12 10q8 4 16 4q7 0 13-4q6-3 10-10q3-6 3-16q0-10-3-18q-4-7-10-12q-5-4-12-6q-6-2-11-2q-7 0-11 1q-3 1-7 3l0-34q0-5 1-8q2-2 6-3q3-1 10-1q0 0 0-1q0-1 0-1q-4 0-10 0q-5 0-11 0q-5 0-9 0q-4 0-7 0zm20 95l0-37q4-4 8-7q6-4 15-4q8 0 14 8q6 8 6 22q0 14-6 21q-7 8-16 8q-7 0-13-4q-4-3-8-7z"/><path id="u" d="m9 0q-1 0-1 1q0 1 1 1q6 0 9 2q2 2 2 10l0 31q0 5-2 8q-1 3-4 3q-1 0-3 0q-2-1-5-2q0 0 0 0q-1 1 0 2l21 10q1 0 1 0q0 0 0 0q1-1 1-2q0-1 0-6q0-5 0-13l0-31q0-8 2-10q2-2 8-2q1 0 1-1q0-1-1-1q-3 0-7 0q-4 0-8 0q-4 0-8 0q-4 0-7 0zm14 85q-3 0-5 2q-2 2-2 5q0 4 2 6q2 1 5 1q3 0 5-1q2-2 2-6q0-7-7-7z"/><path id="v" d="m52-1q0 0-1 0q-2 0-4 3q-2 3-2 8l-9-6q-4-3-7-4q-3-1-7-1q-6 0-10 3q-3 4-3 8q0 4 2 6q2 3 5 6q4 2 10 4l19 7l0 11q0 10-3 14q-3 5-8 5q-4 0-6-2q-3-2-4-5q-2-3-2-6q-1-2-2-4q-1-2-4-2q-3 0-4 2q-2 1-2 3q0 3 3 6q3 3 8 5q5 3 10 4q5 2 9 2q7 0 10-4q4-5 4-13l0-31q0-6 2-8q1-3 4-3q4 0 9 2q0 0 1 0q0 0 0-1q0 0 0-1zm-7 13q0 0 0 1l0 17l-16-6q-3-1-5-2q-2-2-3-4q-1-1-1-4q0-3 3-6q3-3 7-3q2 0 4 1q1 0 4 2z"/><path id="w" d="m32-2q-7 0-13 4q-6 4-9 11q-4 7-4 17q0 9 4 16q3 7 8 12q6 4 13 6q7 2 13 2q6 0 11-2q3 0 5-2l0 38q0 6-1 8q-1 3-5 3q-1 0-2-1q-2 0-5-2q0 0-1 0q0 0 0 1q0 1 0 1q0 0 0 0l21 11q0 0 1 0q0 0 0-1q1 0 1 0l0-102q0-6 1-8q2-3 5-3q2 0 5 1q2 0 4 1q1 1 2 0q0-1-1-1l-18-9q-1-1-2-1q-2 0-3 4q-2 4-2 10q-2-2-4-4q-5-4-10-7q-6-3-14-3zm28 54q-3 4-7 7q-5 4-13 4q-11 0-17-7q-6-7-6-21q0-10 3-17q2-7 7-10q5-4 11-4q8 0 14 4q4 3 8 7z"/><path id="x" d="m7 0q-1 0-1 1q0 1 1 1q6 0 8 2q2 2 2 10l0 86q0 6-1 8q-1 3-4 3q-3 0-8-2q0 0 0 0q0 0-1 0q0 1 0 1q0 0 0 0l22 11q0 0 1 0q0 0 0-1q1 0 1 0l0-106q0-8 2-10q2-2 8-2q1 0 1-1q0-1-1-1q-3 0-7 0q-4 0-8 0q-4 0-8 0q-4 0-7 0z"/><path id="y" d="m36-2q-10 0-16 4q-7 5-10 12q-4 8-4 16q0 10 4 18q5 8 14 13q8 5 17 5q10 0 15-5q4-5 4-14q0-2 0-3q0-2-2-2l-6 0l-35 0q0-2 0-6q0-9 3-16q3-8 9-12q6-4 14-4q6 0 9 2q4 1 8 3q0 0 0 1q0 0 1-1q0-1 0-1q-6-6-12-8q-6-2-13-2zm13 47q0 8-3 13q-4 4-10 4q-9 0-14-6q-3-5-4-12z"/><path id="z" d="m5 0q0 0 0 1q0 1 0 1q7 0 9 2q3 2 3 10l0 37q0 4-1 6q-1 2-4 3q-2 0-7 0q-1 0-1 1q0 1 1 1q7 0 9 2q2 2 2 6q1 18 6 30q5 11 14 16q9 5 20 5q10 0 16-3q5-4 5-10q0-2-1-4q-2-1-4-1q-3 0-4 3q-2 2-4 5q-2 3-4 5q-3 2-9 2q-7 0-13-4q-6-5-9-15q-3-10-3-26l0-11q5 1 10 1q5 1 12 1q0 0 0-1q1-1 1-3q0-2-1-3q0-1-1-1q0 0 0 0q-6 2-11 3q-5 0-10 1l0-46q0-5 1-8q1-2 5-3q4-1 11-1q0 0 0-1q0-1 0-1q-6 0-11 0q-5 0-11 0q-4 0-9 0q-4 0-7 0zm53 0q0 0 0 1q0 1 0 1q7 0 9 2q2 2 2 10l0 31q0 9-3 11q-2 1-10-2q-1 0-2 0q0 1 1 2l22 10q0 0 1 0q0-1 0-2q0-1 0-6q0-5 0-13l0-31q0-8 2-10q2-2 9-2q0 0 0-1q0-1 0-1q-3 0-7 0q-4 0-8 0q-5 0-9 0q-4 0-7 0z"/></defs><rect width="1280" height="740" rx="20" fill="#F6F1E7"/><rect x="12.5" y="12.5" width="1255" height="715" rx="12" fill="none" stroke="#E0D7C4"/><g fill="#7A5F2F"><g transform="translate(72.0 82.0) scale(0.0420 -0.0420)"><use href="#a"/><use href="#b" x="473"/><use href="#c" x="834"/><use href="#d" x="1145"/><use href="#e" x="1481"/><use href="#f" x="1794"/><use href="#g" x="1986"/><use href="#a" x="2309"/><use href="#h" x="2782"/><use href="#a" x="3201"/><use href="#i" x="3674"/><use href="#f" x="3925"/><use href="#j" x="4117"/><use href="#a" x="4386"/></g></g><g fill="#141414"><g transform="translate(72.0 128.0) scale(0.2640 -0.2640)"><use href="#k"/><use href="#l" x="114"/><use href="#m" x="194"/><use href="#n" x="280"/><use href="#o" x="337"/><use href="#p" x="393"/><use href="#q" x="454"/><use href="#o" x="536"/><use href="#l" x="592"/><use href="#p" x="672"/><use href="#r" x="727"/><use href="#s" x="803"/><use href="#l" x="870"/><use href="#t" x="950"/><use href="#u" x="1035"/><use href="#v" x="1081"/><use href="#w" x="1151"/><use href="#l" x="1236"/><use href="#p" x="1316"/><use href="#r" x="1371"/><use href="#s" x="1447"/><use href="#l" x="1514"/><use href="#m" x="1594"/><use href="#o" x="1680"/><use href="#p" x="1736"/><use href="#l" x="1795"/><use href="#x" x="1875"/><use href="#y" x="1918"/><use href="#y" x="2025"/><use href="#z" x="2132"/><use href="#o" x="2227"/><use href="#v" x="2283"/></g></g><g fill="#5C564C"><g transform="translate(72.0 162.0) scale(0.1080 -0.1080)"><use href="#A"/><use href="#l" x="99"/><use href="#m" x="179"/><use href="#B" x="304"/><use href="#y" x="425"/><use href="#q" x="493"/><use href="#C" x="576"/><use href="#v" x="703"/><use href="#m" x="772"/><use href="#m" x="859"/><use href="#D" x="984"/><use href="#E" x="1035"/><use href="#F" x="1100"/><use href="#G" x="1182"/><use href="#G" x="1264"/><use href="#H" x="1345"/><use href="#I" x="1436"/><use href="#y" x="1545"/><use href="#n" x="1613"/><use href="#J" x="1669"/><use href="#q" x="1750"/><use href="#y" x="1832"/><use href="#p" x="1900"/><use href="#w" x="1959"/><use href="#v" x="2044"/><use href="#r" x="2114"/><use href="#v" x="2190"/><use href="#K" x="2299"/><use href="#v" x="2380"/><use href="#s" x="2449"/><use href="#o" x="2518"/><use href="#l" x="2574"/><use href="#p" x="2654"/><use href="#L" x="2715"/><use href="#I" x="2826"/><use href="#w" x="2935"/><use href="#u" x="3020"/><use href="#p" x="3066"/><use href="#y" x="3124"/><use href="#u" x="3192"/><use href="#o" x="3238"/><use href="#v" x="3294"/><use href="#M" x="3364"/><use href="#q" x="3436"/><use href="#C" x="3518"/><use href="#v" x="3645"/><use href="#s" x="3754"/><use href="#l" x="3822"/><use href="#p" x="3902"/><use href="#p" x="3962"/><use href="#y" x="4021"/><use href="#n" x="4089"/><use href="#t" x="4145"/><use href="#l" x="4230"/><use href="#m" x="4310"/><use href="#w" x="4396"/><use href="#N" x="4482"/><use href="#m" x="4550"/><use href="#s" x="4636"/><use href="#u" x="4704"/><use href="#v" x="4750"/><use href="#w" x="4859"/><use href="#y" x="4944"/><use href="#v" x="5051"/><use href="#p" x="5121"/><use href="#J" x="5180"/><use href="#q" x="5261"/><use href="#u" x="5343"/><use href="#o" x="5388"/><use href="#y" x="5445"/><use href="#o" x="5513"/><use href="#q" x="5569"/><use href="#p" x="5651"/><use href="#v" x="5709"/><use href="#r" x="5779"/><use href="#m" x="5855"/><use href="#O" x="5941"/><use href="#l" x="6011"/><use href="#q" x="6130"/><use href="#C" x="6212"/><use href="#o" x="6378"/><use href="#y" x="6434"/><use href="#l" x="6502"/><use href="#p" x="6581"/><use href="#y" x="6640"/><use href="#C" x="6708"/><use href="#v" x="6835"/><use href="#P" x="6905"/></g></g><g fill="#7A5F2F"><g transform="translate(72.0 222.0) scale(0.0390 -0.0390)"><use href="#Q"/><use href="#R" x="293"/><use href="#g" x="628"/><use href="#g" x="1109"/><use href="#h" x="1433"/><use href="#e" x="1693"/><use href="#b" x="2007"/><use href="#a" x="2367"/><use href="#g" x="2683"/><use href="#g" x="3006"/></g></g><g fill="#7A5F2F"><g transform="translate(744.0 222.0) scale(0.0390 -0.0390)"><use href="#i"/><use href="#a" x="243"/><use href="#S" x="555"/><use href="#j" x="863"/><use href="#R" x="1150"/><use href="#T" x="1485"/><use href="#U" x="1773"/></g></g><line x1="72" y1="238" x2="1208" y2="238" stroke="#E0D7C4" stroke-width="1"/><g fill="#7A5F2F"><g transform="translate(84.0 292.0) scale(0.2400 -0.2400)"><use href="#V"/></g></g><g fill="#141414"><g transform="translate(140.0 284.0) scale(0.1500 -0.1500)"><use href="#s"/><use href="#l" x="68"/><use href="#m" x="147"/><use href="#n" x="234"/><use href="#o" x="290"/><use href="#p" x="346"/><use href="#q" x="407"/><use href="#o" x="489"/><use href="#l" x="545"/><use href="#p" x="625"/><use href="#q" x="725"/><use href="#m" x="807"/><use href="#u" x="893"/><use href="#W" x="939"/><use href="#y" x="1011"/><use href="#p" x="1079"/><use href="#n" x="1140"/><use href="#v" x="1196"/><use href="#x" x="1266"/></g></g><g fill="#5C564C"><g transform="translate(140.0 311.0) scale(0.1020 -0.1020)"><use href="#X"/><use href="#Y" x="74"/><use href="#X" x="146"/><use href="#Y" x="220"/><use href="#Z" x="332"/><use href="#aa" x="409"/><use href="#Y" x="522"/><use href="#X" x="633"/><use href="#ab" x="707"/><use href="#ac" x="764"/><use href="#ad" x="815"/><use href="#ae" x="872"/><use href="#af" x="929"/><use href="#ag" x="970"/><use href="#ah" x="1028"/><use href="#ai" x="1100"/></g><g transform="translate(262.9 311.0) scale(0.0510 -0.0510)"><use href="#aj"/></g><g transform="translate(275.7 311.0) scale(0.1020 -0.1020)"><use href="#ak"/><use href="#al" x="47"/><use href="#am" x="143"/><use href="#an" x="190"/><use href="#ad" x="266"/><use href="#ai" x="324"/><use href="#ao" x="390"/><use href="#ac" x="468"/><use href="#ap" x="518"/><use href="#ae" x="567"/><use href="#aq" x="622"/><use href="#af" x="688"/><use href="#al" x="768"/></g></g><line x1="560" y1="282" x2="704" y2="282" stroke="#E0D7C4" stroke-width="1.2" stroke-dasharray="3 5"/><circle cx="560" cy="282" r="2.6" fill="#B8975A"/><path d="M692 282 H720 m-7 -5 l7 5 l-7 5" fill="none" stroke="#B8975A" stroke-width="1.4" stroke-linecap="round" stroke-linejoin="round"/><g fill="#141414"><g transform="translate(744.0 284.0) scale(0.1500 -0.1500)"><use href="#m"/><use href="#ar" x="86"/><use href="#s" x="168"/><use href="#x" x="237"/><use href="#y" x="280"/><use href="#l" x="347"/></g></g><g fill="#5C564C"><g transform="translate(744.0 311.0) scale(0.1020 -0.1020)"><use href="#as"/><use href="#v" x="51"/><use href="#s" x="121"/><use href="#o" x="189"/><use href="#l" x="246"/><use href="#p" x="325"/><use href="#L" x="386"/><use href="#at" x="458"/><use href="#C" x="512"/><use href="#v" x="640"/><use href="#J" x="709"/><use href="#q" x="791"/><use href="#u" x="873"/><use href="#m" x="918"/><use href="#v" x="1004"/><use href="#P" x="1074"/><use href="#t" x="1107"/><use href="#L" x="1192"/></g></g><g fill="#7A5F2F"><g transform="translate(85.6 372.0) scale(0.2400 -0.2400)"><use href="#au"/></g></g><g fill="#141414"><g transform="translate(140.0 364.0) scale(0.1500 -0.1500)"><use href="#s"/><use href="#l" x="68"/><use href="#t" x="147"/><use href="#u" x="232"/><use href="#v" x="278"/><use href="#w" x="348"/><use href="#l" x="433"/><use href="#p" x="513"/></g></g><g fill="#5C564C"><g transform="translate(140.0 391.0) scale(0.1020 -0.1020)"><use href="#ad"/><use href="#ai" x="58"/><use href="#av" x="124"/><use href="#af" x="192"/><use href="#Y" x="233"/></g><g transform="translate(175.1 391.0) scale(0.0510 -0.0510)"><use href="#aj"/></g><g transform="translate(187.9 391.0) scale(0.1020 -0.1020)"><use href="#ak"/><use href="#al" x="47"/><use href="#am" x="143"/><use href="#ac" x="229"/><use href="#ab" x="279"/><use href="#aa" x="336"/><use href="#af" x="488"/><use href="#ao" x="529"/><use href="#ap" x="607"/><use href="#ab" x="656"/><use href="#ae" x="713"/><use href="#av" x="770"/><use href="#ae" x="838"/><use href="#ab" x="891"/><use href="#ap" x="948"/><use href="#Y" x="998"/><use href="#ae" x="1070"/></g></g><line x1="560" y1="362" x2="704" y2="362" stroke="#E0D7C4" stroke-width="1.2" stroke-dasharray="3 5"/><circle cx="560" cy="362" r="2.6" fill="#B8975A"/><path d="M692 362 H720 m-7 -5 l7 5 l-7 5" fill="none" stroke="#B8975A" stroke-width="1.4" stroke-linecap="round" stroke-linejoin="round"/><g fill="#141414"><g transform="translate(744.0 364.0) scale(0.1500 -0.1500)"><use href="#p"/><use href="#y" x="59"/><use href="#t" x="127"/><use href="#x" x="212"/><use href="#u" x="255"/><use href="#s" x="300"/><use href="#v" x="368"/><use href="#aw" x="438"/><use href="#O" x="506"/><use href="#l" x="576"/></g></g><g fill="#5C564C"><g transform="translate(744.0 391.0) scale(0.1020 -0.1020)"><use href="#ax"/><use href="#u" x="74"/><use href="#o" x="120"/></g></g><g fill="#7A5F2F"><g transform="translate(84.3 452.0) scale(0.2400 -0.2400)"><use href="#ay"/></g></g><g fill="#141414"><g transform="translate(140.0 444.0) scale(0.1500 -0.1500)"><use href="#s"/><use href="#l" x="68"/><use href="#m" x="147"/><use href="#o" x="234"/><use href="#p" x="290"/><use href="#l" x="348"/><use href="#x" x="428"/><use href="#y" x="471"/></g></g><g fill="#5C564C"><g transform="translate(140.0 471.0) scale(0.1020 -0.1020)"><use href="#ad"/><use href="#ai" x="58"/><use href="#ai" x="124"/><use href="#ae" x="190"/><use href="#X" x="243"/><use href="#ab" x="317"/><use href="#ao" x="374"/><use href="#Y" x="452"/><use href="#V" x="563"/><use href="#ab" x="702"/><use href="#au" x="798"/></g></g><line x1="560" y1="442" x2="704" y2="442" stroke="#E0D7C4" stroke-width="1.2" stroke-dasharray="3 5"/><circle cx="560" cy="442" r="2.6" fill="#B8975A"/><path d="M692 442 H720 m-7 -5 l7 5 l-7 5" fill="none" stroke="#B8975A" stroke-width="1.4" stroke-linecap="round" stroke-linejoin="round"/><g fill="#141414"><g transform="translate(744.0 444.0) scale(0.1500 -0.1500)"><use href="#s"/><use href="#l" x="68"/><use href="#l" x="147"/><use href="#p" x="227"/><use href="#w" x="286"/><use href="#y" x="371"/><use href="#m" x="439"/><use href="#v" x="525"/><use href="#aw" x="595"/><use href="#O" x="664"/><use href="#l" x="734"/></g></g><g fill="#5C564C"><g transform="translate(744.0 471.0) scale(0.1020 -0.1020)"><use href="#az"/><use href="#v" x="50"/><use href="#C" x="120"/><use href="#y" x="247"/><use href="#n" x="315"/><use href="#aA" x="410"/><use href="#aB" x="482"/><use href="#v" x="621"/><use href="#y" x="691"/><use href="#n" x="759"/><use href="#o" x="815"/><use href="#p" x="872"/><use href="#l" x="930"/><use href="#aA" x="1049"/><use href="#z" x="1120"/><use href="#x" x="1215"/><use href="#v" x="1258"/></g></g><g fill="#7A5F2F"><g transform="translate(81.0 532.0) scale(0.1200 -0.1200)"><use href="#aj"/></g></g><g fill="#141414"><g transform="translate(140.0 524.0) scale(0.1500 -0.1500)"><use href="#z"/><use href="#o" x="95"/><use href="#v" x="151"/></g></g><g fill="#5C564C"><g transform="translate(140.0 551.0) scale(0.1020 -0.1020)"><use href="#v"/><use href="#w" x="109"/><use href="#y" x="194"/><use href="#n" x="262"/><use href="#s" x="318"/><use href="#p" x="387"/><use href="#u" x="448"/><use href="#aw" x="493"/><use href="#O" x="562"/><use href="#l" x="632"/><use href="#r" x="711"/><use href="#as" x="787"/><use href="#l" x="838"/><use href="#p" x="918"/><use href="#v" x="976"/><use href="#w" x="1085"/><use href="#l" x="1170"/><use href="#s" x="1289"/><use href="#l" x="1356"/><use href="#m" x="1436"/><use href="#n" x="1522"/><use href="#o" x="1579"/><use href="#p" x="1635"/><use href="#q" x="1696"/><use href="#o" x="1778"/><use href="#l" x="1834"/><use href="#p" x="1914"/></g></g><line x1="560" y1="522" x2="704" y2="522" stroke="#E0D7C4" stroke-width="1.2" stroke-dasharray="3 5"/><circle cx="560" cy="522" r="2.6" fill="#B8975A"/><path d="M692 522 H720 m-7 -5 l7 5 l-7 5" fill="none" stroke="#B8975A" stroke-width="1.4" stroke-linecap="round" stroke-linejoin="round"/><g fill="#141414"><g transform="translate(744.0 524.0) scale(0.1500 -0.1500)"><use href="#w"/><use href="#y" x="85"/><use href="#n" x="153"/><use href="#s" x="210"/><use href="#p" x="278"/><use href="#u" x="339"/><use href="#aw" x="384"/><use href="#O" x="453"/><use href="#l" x="523"/><use href="#W" x="642"/><use href="#y" x="714"/><use href="#p" x="782"/><use href="#n" x="842"/><use href="#u" x="899"/><use href="#l" x="944"/><use href="#m" x="1024"/><use href="#v" x="1110"/><use href="#w" x="1180"/><use href="#v" x="1266"/></g></g><g fill="#5C564C"><g transform="translate(744.0 551.0) scale(0.1020 -0.1020)"><use href="#as"/><use href="#v" x="51"/><use href="#s" x="121"/><use href="#o" x="189"/><use href="#l" x="246"/><use href="#p" x="325"/><use href="#L" x="386"/><use href="#P" x="451"/><use href="#C" x="484"/><use href="#v" x="611"/><use href="#m" x="680"/><use href="#u" x="767"/><use href="#as" x="812"/><use href="#y" x="863"/><use href="#n" x="931"/><use href="#o" x="987"/><use href="#P" x="1044"/><use href="#aC" x="1076"/><use href="#n" x="1119"/><use href="#l" x="1176"/><use href="#m" x="1256"/><use href="#r" x="1342"/><use href="#s" x="1418"/><use href="#aD" x="1485"/><use href="#w" x="1565"/><use href="#u" x="1650"/><use href="#ax" x="1696"/><use href="#l" x="1768"/><use href="#r" x="1848"/><use href="#o" x="1924"/><use href="#y" x="1980"/><use href="#n" x="2048"/><use href="#o" x="2104"/><use href="#y" x="2161"/><use href="#n" x="2229"/><use href="#r" x="2285"/><use href="#k" x="2361"/><use href="#aE" x="2476"/><use href="#aF" x="2564"/><use href="#aG" x="2676"/><use href="#aH" x="2792"/><use href="#aI" x="2907"/><use href="#P" x="2996"/><use href="#C" x="3029"/><use href="#w" x="3156"/><use href="#r" x="3242"/><use href="#C" x="3318"/><use href="#y" x="3445"/><use href="#C" x="3513"/><use href="#aD" x="3640"/><use href="#p" x="3720"/><use href="#u" x="3781"/><use href="#v" x="3826"/></g></g><rect x="72" y="616" width="1136" height="44" fill="#E0D7C4" opacity=".35"/><rect x="814.8" y="616" width="43.7" height="44" fill="#B8975A" opacity=".28"/><g stroke="#141414" stroke-width="1" fill="none"><rect x="72" y="616" width="1136" height="44"/><line x1="115.7" y1="616" x2="115.7" y2="660"/><line x1="159.4" y1="616" x2="159.4" y2="660"/><line x1="203.1" y1="616" x2="203.1" y2="660"/><line x1="246.8" y1="616" x2="246.8" y2="660"/><line x1="290.5" y1="616" x2="290.5" y2="660"/><line x1="334.2" y1="616" x2="334.2" y2="660"/><line x1="377.8" y1="616" x2="377.8" y2="660"/><line x1="421.5" y1="616" x2="421.5" y2="660"/><line x1="465.2" y1="616" x2="465.2" y2="660"/><line x1="508.9" y1="616" x2="508.9" y2="660"/><line x1="552.6" y1="616" x2="552.6" y2="660"/><line x1="596.3" y1="616" x2="596.3" y2="660"/><line x1="640.0" y1="616" x2="640.0" y2="660"/><line x1="683.7" y1="616" x2="683.7" y2="660"/><line x1="727.4" y1="616" x2="727.4" y2="660"/><line x1="771.1" y1="616" x2="771.1" y2="660"/><line x1="814.8" y1="616" x2="814.8" y2="660"/><line x1="858.5" y1="616" x2="858.5" y2="660"/><line x1="902.2" y1="616" x2="902.2" y2="660"/><line x1="945.8" y1="616" x2="945.8" y2="660"/><line x1="989.5" y1="616" x2="989.5" y2="660"/><line x1="1033.2" y1="616" x2="1033.2" y2="660"/><line x1="1076.9" y1="616" x2="1076.9" y2="660"/><line x1="1120.6" y1="616" x2="1120.6" y2="660"/><line x1="1164.3" y1="616" x2="1164.3" y2="660"/></g><rect x="814.8" y="616" width="43.7" height="44" fill="none" stroke="#7A5F2F" stroke-width="2"/><g fill="#141414"><g transform="translate(89.5 646.0) scale(0.1320 -0.1320)"><use href="#E"/></g></g><g fill="#141414"><g transform="translate(131.0 646.0) scale(0.1320 -0.1320)"><use href="#aJ"/></g></g><g fill="#141414"><g transform="translate(176.9 646.0) scale(0.1320 -0.1320)"><use href="#E"/></g></g><g fill="#141414"><g transform="translate(219.4 646.0) scale(0.1320 -0.1320)"><use href="#aK"/></g></g><g fill="#141414"><g transform="translate(263.1 646.0) scale(0.1320 -0.1320)"><use href="#aK"/></g></g><g fill="#141414"><g transform="translate(307.2 646.0) scale(0.1320 -0.1320)"><use href="#aL"/></g></g><g fill="#141414"><g transform="translate(349.6 646.0) scale(0.1320 -0.1320)"><use href="#al"/></g></g><g fill="#141414"><g transform="translate(395.4 646.0) scale(0.1320 -0.1320)"><use href="#E"/></g></g><g fill="#141414"><g transform="translate(439.1 646.0) scale(0.1320 -0.1320)"><use href="#E"/></g></g><g fill="#141414"><g transform="translate(481.6 646.0) scale(0.1320 -0.1320)"><use href="#aK"/></g></g><g fill="#141414"><g transform="translate(526.5 646.0) scale(0.1320 -0.1320)"><use href="#E"/></g></g><g fill="#141414"><g transform="translate(570.2 646.0) scale(0.1320 -0.1320)"><use href="#E"/></g></g><g fill="#141414"><g transform="translate(611.8 646.0) scale(0.1320 -0.1320)"><use href="#al"/></g></g><g fill="#141414"><g transform="translate(656.3 646.0) scale(0.1320 -0.1320)"><use href="#aK"/></g></g><g fill="#141414"><g transform="translate(700.1 646.0) scale(0.1320 -0.1320)"><use href="#aM"/></g></g><g fill="#141414"><g transform="translate(742.9 646.0) scale(0.1320 -0.1320)"><use href="#al"/></g></g><g fill="#141414"><g transform="translate(787.4 646.0) scale(0.1320 -0.1320)"><use href="#aK"/></g></g><g fill="#7A5F2F"><g transform="translate(831.1 646.0) scale(0.1320 -0.1320)"><use href="#aK"/></g></g><g fill="#141414"><g transform="translate(874.9 646.0) scale(0.1320 -0.1320)"><use href="#aM"/></g></g><g fill="#141414"><g transform="translate(919.7 646.0) scale(0.1320 -0.1320)"><use href="#E"/></g></g><g fill="#141414"><g transform="translate(962.2 646.0) scale(0.1320 -0.1320)"><use href="#aK"/></g></g><g fill="#141414"><g transform="translate(1006.3 646.0) scale(0.1320 -0.1320)"><use href="#aL"/></g></g><g fill="#141414"><g transform="translate(1049.6 646.0) scale(0.1320 -0.1320)"><use href="#aK"/></g></g><g fill="#141414"><g transform="translate(1093.3 646.0) scale(0.1320 -0.1320)"><use href="#aK"/></g></g><g fill="#141414"><g transform="translate(1138.2 646.0) scale(0.1320 -0.1320)"><use href="#E"/></g></g><g fill="#141414"><g transform="translate(1179.8 646.0) scale(0.1320 -0.1320)"><use href="#al"/></g></g><g fill="#7A5F2F"><g transform="translate(701.1 602.0) scale(0.0480 -0.0480)"><use href="#aN"/></g><g transform="translate(711.9 602.0) scale(0.0960 -0.0960)"><use href="#aA" x="39"/><use href="#q" x="110"/><use href="#C" x="193"/><use href="#v" x="320"/><use href="#C" x="429"/><use href="#q" x="556"/><use href="#o" x="638"/><use href="#v" x="694"/><use href="#aw" x="764"/><use href="#O" x="833"/><use href="#l" x="902"/><use href="#w" x="1021"/><use href="#v" x="1107"/><use href="#z" x="1216"/><use href="#o" x="1310"/><use href="#v" x="1366"/><use href="#aO" x="1475"/><use href="#q" x="1592"/><use href="#C" x="1674"/><use href="#aP" x="1841"/><use href="#aQ" x="1931"/><use href="#C" x="2082"/><use href="#y" x="2210"/><use href="#p" x="2278"/><use href="#ax" x="2336"/><use href="#y" x="2408"/><use href="#v" x="2476"/><use href="#w" x="2545"/><use href="#l" x="2631"/></g></g><g fill="#7A5F2F"><g transform="translate(36.2 647.0) scale(0.0780 -0.0780)"><use href="#aj"/></g></g><g fill="#141414" opacity="0.85"><g transform="translate(167.2 696.0) scale(0.1080 -0.1080)"><use href="#aG"/><use href="#n" x="113"/><use href="#l" x="170"/><use href="#w" x="288"/><use href="#q" x="374"/><use href="#t" x="456"/><use href="#x" x="541"/><use href="#l" x="584"/><use href="#M" x="664"/><use href="#v" x="736"/><use href="#z" x="845"/><use href="#o" x="939"/><use href="#v" x="996"/><use href="#aR" x="1104"/><use href="#u" x="1212"/><use href="#m" x="1257"/><use href="#o" x="1343"/><use href="#y" x="1400"/><use href="#p" x="1468"/><use href="#t" x="1528"/><use href="#p" x="1613"/><use href="#y" x="1672"/><use href="#o" x="1740"/><use href="#v" x="1796"/><use href="#w" x="1866"/><use href="#v" x="1952"/><use href="#t" x="2060"/><use href="#v" x="2146"/><use href="#p" x="2215"/><use href="#v" x="2273"/><use href="#s" x="2382"/><use href="#l" x="2450"/><use href="#m" x="2529"/><use href="#n" x="2616"/><use href="#o" x="2672"/><use href="#p" x="2728"/><use href="#q" x="2789"/><use href="#u" x="2871"/><use href="#p" x="2916"/><use href="#y" x="3016"/><use href="#s" x="3123"/><use href="#l" x="3191"/><use href="#t" x="3270"/><use href="#u" x="3356"/><use href="#v" x="3401"/><use href="#w" x="3471"/><use href="#v" x="3556"/><use href="#n" x="3665"/><use href="#y" x="3722"/><use href="#C" x="3790"/><use href="#u" x="3956"/><use href="#m" x="4001"/><use href="#o" x="4087"/><use href="#y" x="4144"/><use href="#p" x="4212"/><use href="#t" x="4272"/><use href="#p" x="4358"/><use href="#y" x="4416"/><use href="#o" x="4484"/><use href="#v" x="4540"/><use href="#aw" x="4610"/><use href="#O" x="4679"/><use href="#l" x="4749"/><use href="#P" x="4828"/><use href="#aS" x="4900"/><use href="#az" x="5067"/><use href="#v" x="5117"/><use href="#C" x="5187"/><use href="#y" x="5314"/><use href="#n" x="5382"/><use href="#m" x="5477"/><use href="#O" x="5564"/><use href="#l" x="5633"/><use href="#y" x="5752"/><use href="#W" x="5820"/><use href="#l" x="5892"/><use href="#x" x="5972"/><use href="#q" x="6015"/><use href="#u" x="6098"/><use href="#o" x="6182"/><use href="#p" x="6238"/><use href="#l" x="6297"/><use href="#s" x="6377"/><use href="#v" x="6444"/><use href="#m" x="6514"/><use href="#w" x="6600"/><use href="#l" x="6686"/><use href="#w" x="6805"/><use href="#y" x="6890"/><use href="#aT" x="6997"/><use href="#l" x="7080"/><use href="#n" x="7160"/><use href="#o" x="7216"/><use href="#aU" x="7273"/><use href="#y" x="7349"/><use href="#W" x="7417"/><use href="#l" x="7489"/><use href="#x" x="7569"/><use href="#q" x="7612"/><use href="#u" x="7694"/><use href="#y" x="7779"/><use href="#w" x="7846"/><use href="#u" x="7931"/><use href="#o" x="7977"/><use href="#v" x="8033"/><use href="#m" x="8103"/><use href="#w" x="8189"/><use href="#l" x="8274"/><use href="#v" x="8393"/><use href="#z" x="8502"/><use href="#o" x="8597"/><use href="#v" x="8653"/><use href="#P" x="8723"/></g></g></svg>
